<?xml version="1.0" encoding="utf-8" standalone="no"?>
<!DOCTYPE svg PUBLIC "-//W3C//DTD SVG 1.1//EN"
  "http://www.w3.org/Graphics/SVG/1.1/DTD/svg11.dtd">
<svg xmlns:xlink="http://www.w3.org/1999/xlink" width="720pt" height="360pt" viewBox="0 0 720 360" xmlns="http://www.w3.org/2000/svg" version="1.1">
 <metadata>
  <rdf:RDF xmlns:dc="http://purl.org/dc/elements/1.1/" xmlns:cc="http://creativecommons.org/ns#" xmlns:rdf="http://www.w3.org/1999/02/22-rdf-syntax-ns#">
   <cc:Work>
    <dc:type rdf:resource="http://purl.org/dc/dcmitype/StillImage"/>
    <dc:date>2024-12-03T11:47:09.709680</dc:date>
    <dc:format>image/svg+xml</dc:format>
    <dc:creator>
     <cc:Agent>
      <dc:title>Matplotlib v3.8.4, https://matplotlib.org/</dc:title>
     </cc:Agent>
    </dc:creator>
   </cc:Work>
  </rdf:RDF>
 </metadata>
 <defs>
  <style type="text/css">*{stroke-linejoin: round; stroke-linecap: butt}</style>
 </defs>
 <g id="figure_1">
  <g id="patch_1">
   <path d="M 0 360 
L 720 360 
L 720 0 
L 0 0 
z
" style="fill: #ffffff"/>
  </g>
  <g id="axes_1">
   <g id="patch_2">
    <path d="M 177.95 318.04 
L 709.2 318.04 
L 709.2 25.44 
L 177.95 25.44 
z
" style="fill: #ffffff"/>
   </g>
   <g id="patch_3">
    <path d="M 177.95 304.74 
L 683.902381 304.74 
L 683.902381 293.420851 
L 177.95 293.420851 
z
" clip-path="url(#pb4169ca63c)" style="fill: #800080"/>
   </g>
   <g id="patch_4">
    <path d="M 177.95 290.591064 
L 505.379355 290.591064 
L 505.379355 279.271915 
L 177.95 279.271915 
z
" clip-path="url(#pb4169ca63c)" style="fill: #ffc0cb"/>
   </g>
   <g id="patch_5">
    <path d="M 177.95 276.442128 
L 304.624368 276.442128 
L 304.624368 265.122979 
L 177.95 265.122979 
z
" clip-path="url(#pb4169ca63c)" style="fill: #800080"/>
   </g>
   <g id="patch_6">
    <path d="M 177.95 262.293191 
L 261.027508 262.293191 
L 261.027508 250.974043 
L 177.95 250.974043 
z
" clip-path="url(#pb4169ca63c)" style="fill: #ffc0cb"/>
   </g>
   <g id="patch_7">
    <path d="M 177.95 248.144255 
L 234.579684 248.144255 
L 234.579684 236.825106 
L 177.95 236.825106 
z
" clip-path="url(#pb4169ca63c)" style="fill: #800080"/>
   </g>
   <g id="patch_8">
    <path d="M 177.95 233.995319 
L 211.863502 233.995319 
L 211.863502 222.67617 
L 177.95 222.67617 
z
" clip-path="url(#pb4169ca63c)" style="fill: #ffc0cb"/>
   </g>
   <g id="patch_9">
    <path d="M 177.95 219.846383 
L 198.668191 219.846383 
L 198.668191 208.527234 
L 177.95 208.527234 
z
" clip-path="url(#pb4169ca63c)" style="fill: #800080"/>
   </g>
   <g id="patch_10">
    <path d="M 177.95 205.697447 
L 186.028858 205.697447 
L 186.028858 194.378298 
L 177.95 194.378298 
z
" clip-path="url(#pb4169ca63c)" style="fill: #ffc0cb"/>
   </g>
   <g id="patch_11">
    <path d="M 177.95 191.548511 
L 178.877969 191.548511 
L 178.877969 180.229362 
L 177.95 180.229362 
z
" clip-path="url(#pb4169ca63c)" style="fill: #800080"/>
   </g>
   <g id="patch_12">
    <path d="M 177.95 177.399574 
L 178.834664 177.399574 
L 178.834664 166.080426 
L 177.95 166.080426 
z
" clip-path="url(#pb4169ca63c)" style="fill: #ffc0cb"/>
   </g>
   <g id="patch_13">
    <path d="M 177.95 163.250638 
L 178.673816 163.250638 
L 178.673816 151.931489 
L 177.95 151.931489 
z
" clip-path="url(#pb4169ca63c)" style="fill: #800080"/>
   </g>
   <g id="patch_14">
    <path d="M 177.95 149.101702 
L 178.593392 149.101702 
L 178.593392 137.782553 
L 177.95 137.782553 
z
" clip-path="url(#pb4169ca63c)" style="fill: #ffc0cb"/>
   </g>
   <g id="patch_15">
    <path d="M 177.95 134.952766 
L 178.432544 134.952766 
L 178.432544 123.633617 
L 177.95 123.633617 
z
" clip-path="url(#pb4169ca63c)" style="fill: #800080"/>
   </g>
   <g id="patch_16">
    <path d="M 177.95 120.80383 
L 178.392332 120.80383 
L 178.392332 109.484681 
L 177.95 109.484681 
z
" clip-path="url(#pb4169ca63c)" style="fill: #ffc0cb"/>
   </g>
   <g id="patch_17">
    <path d="M 177.95 106.654894 
L 178.257073 106.654894 
L 178.257073 95.335745 
L 177.95 95.335745 
z
" clip-path="url(#pb4169ca63c)" style="fill: #800080"/>
   </g>
   <g id="patch_18">
    <path d="M 177.95 92.505957 
L 178.224288 92.505957 
L 178.224288 81.186809 
L 177.95 81.186809 
z
" clip-path="url(#pb4169ca63c)" style="fill: #ffc0cb"/>
   </g>
   <g id="patch_19">
    <path d="M 177.95 78.357021 
L 177.95 78.357021 
L 177.95 67.037872 
L 177.95 67.037872 
z
" clip-path="url(#pb4169ca63c)" style="fill: #800080"/>
   </g>
   <g id="patch_20">
    <path d="M 177.95 64.208085 
L 177.95 64.208085 
L 177.95 52.888936 
L 177.95 52.888936 
z
" clip-path="url(#pb4169ca63c)" style="fill: #ffc0cb"/>
   </g>
   <g id="patch_21">
    <path d="M 177.95 50.059149 
L 177.95 50.059149 
L 177.95 38.74 
L 177.95 38.74 
z
" clip-path="url(#pb4169ca63c)" style="fill: #800080"/>
   </g>
   <g id="matplotlib.axis_1">
    <g id="xtick_1">
     <g id="line2d_1">
      <defs>
       <path id="m7ed77a367d" d="M 0 0 
L 0 3.5 
" style="stroke: #000000; stroke-width: 0.8"/>
      </defs>
      <g>
       <use xlink:href="#m7ed77a367d" x="177.95" y="318.04" style="stroke: #000000; stroke-width: 0.8"/>
      </g>
     </g>
     <g id="text_1">
      <!-- 0.0 -->
      <g transform="translate(169.998438 332.638438) scale(0.1 -0.1)">
       <defs>
        <path id="DejaVuSans-30" d="M 2034 4250 
Q 1547 4250 1301 3770 
Q 1056 3291 1056 2328 
Q 1056 1369 1301 889 
Q 1547 409 2034 409 
Q 2525 409 2770 889 
Q 3016 1369 3016 2328 
Q 3016 3291 2770 3770 
Q 2525 4250 2034 4250 
z
M 2034 4750 
Q 2819 4750 3233 4129 
Q 3647 3509 3647 2328 
Q 3647 1150 3233 529 
Q 2819 -91 2034 -91 
Q 1250 -91 836 529 
Q 422 1150 422 2328 
Q 422 3509 836 4129 
Q 1250 4750 2034 4750 
z
" transform="scale(0.015625)"/>
        <path id="DejaVuSans-2e" d="M 684 794 
L 1344 794 
L 1344 0 
L 684 0 
L 684 794 
z
" transform="scale(0.015625)"/>
       </defs>
       <use xlink:href="#DejaVuSans-30"/>
       <use xlink:href="#DejaVuSans-2e" x="63.623047"/>
       <use xlink:href="#DejaVuSans-30" x="95.410156"/>
      </g>
     </g>
    </g>
    <g id="xtick_2">
     <g id="line2d_2">
      <g>
       <use xlink:href="#m7ed77a367d" x="294.665992" y="318.04" style="stroke: #000000; stroke-width: 0.8"/>
      </g>
     </g>
     <g id="text_2">
      <!-- 0.1 -->
      <g transform="translate(286.71443 332.638438) scale(0.1 -0.1)">
       <defs>
        <path id="DejaVuSans-31" d="M 794 531 
L 1825 531 
L 1825 4091 
L 703 3866 
L 703 4441 
L 1819 4666 
L 2450 4666 
L 2450 531 
L 3481 531 
L 3481 0 
L 794 0 
L 794 531 
z
" transform="scale(0.015625)"/>
       </defs>
       <use xlink:href="#DejaVuSans-30"/>
       <use xlink:href="#DejaVuSans-2e" x="63.623047"/>
       <use xlink:href="#DejaVuSans-31" x="95.410156"/>
      </g>
     </g>
    </g>
    <g id="xtick_3">
     <g id="line2d_3">
      <g>
       <use xlink:href="#m7ed77a367d" x="411.381985" y="318.04" style="stroke: #000000; stroke-width: 0.8"/>
      </g>
     </g>
     <g id="text_3">
      <!-- 0.2 -->
      <g transform="translate(403.430422 332.638438) scale(0.1 -0.1)">
       <defs>
        <path id="DejaVuSans-32" d="M 1228 531 
L 3431 531 
L 3431 0 
L 469 0 
L 469 531 
Q 828 903 1448 1529 
Q 2069 2156 2228 2338 
Q 2531 2678 2651 2914 
Q 2772 3150 2772 3378 
Q 2772 3750 2511 3984 
Q 2250 4219 1831 4219 
Q 1534 4219 1204 4116 
Q 875 4013 500 3803 
L 500 4441 
Q 881 4594 1212 4672 
Q 1544 4750 1819 4750 
Q 2544 4750 2975 4387 
Q 3406 4025 3406 3419 
Q 3406 3131 3298 2873 
Q 3191 2616 2906 2266 
Q 2828 2175 2409 1742 
Q 1991 1309 1228 531 
z
" transform="scale(0.015625)"/>
       </defs>
       <use xlink:href="#DejaVuSans-30"/>
       <use xlink:href="#DejaVuSans-2e" x="63.623047"/>
       <use xlink:href="#DejaVuSans-32" x="95.410156"/>
      </g>
     </g>
    </g>
    <g id="xtick_4">
     <g id="line2d_4">
      <g>
       <use xlink:href="#m7ed77a367d" x="528.097977" y="318.04" style="stroke: #000000; stroke-width: 0.8"/>
      </g>
     </g>
     <g id="text_4">
      <!-- 0.3 -->
      <g transform="translate(520.146415 332.638438) scale(0.1 -0.1)">
       <defs>
        <path id="DejaVuSans-33" d="M 2597 2516 
Q 3050 2419 3304 2112 
Q 3559 1806 3559 1356 
Q 3559 666 3084 287 
Q 2609 -91 1734 -91 
Q 1441 -91 1130 -33 
Q 819 25 488 141 
L 488 750 
Q 750 597 1062 519 
Q 1375 441 1716 441 
Q 2309 441 2620 675 
Q 2931 909 2931 1356 
Q 2931 1769 2642 2001 
Q 2353 2234 1838 2234 
L 1294 2234 
L 1294 2753 
L 1863 2753 
Q 2328 2753 2575 2939 
Q 2822 3125 2822 3475 
Q 2822 3834 2567 4026 
Q 2313 4219 1838 4219 
Q 1578 4219 1281 4162 
Q 984 4106 628 3988 
L 628 4550 
Q 988 4650 1302 4700 
Q 1616 4750 1894 4750 
Q 2613 4750 3031 4423 
Q 3450 4097 3450 3541 
Q 3450 3153 3228 2886 
Q 3006 2619 2597 2516 
z
" transform="scale(0.015625)"/>
       </defs>
       <use xlink:href="#DejaVuSans-30"/>
       <use xlink:href="#DejaVuSans-2e" x="63.623047"/>
       <use xlink:href="#DejaVuSans-33" x="95.410156"/>
      </g>
     </g>
    </g>
    <g id="xtick_5">
     <g id="line2d_5">
      <g>
       <use xlink:href="#m7ed77a367d" x="644.81397" y="318.04" style="stroke: #000000; stroke-width: 0.8"/>
      </g>
     </g>
     <g id="text_5">
      <!-- 0.4 -->
      <g transform="translate(636.862407 332.638438) scale(0.1 -0.1)">
       <defs>
        <path id="DejaVuSans-34" d="M 2419 4116 
L 825 1625 
L 2419 1625 
L 2419 4116 
z
M 2253 4666 
L 3047 4666 
L 3047 1625 
L 3713 1625 
L 3713 1100 
L 3047 1100 
L 3047 0 
L 2419 0 
L 2419 1100 
L 313 1100 
L 313 1709 
L 2253 4666 
z
" transform="scale(0.015625)"/>
       </defs>
       <use xlink:href="#DejaVuSans-30"/>
       <use xlink:href="#DejaVuSans-2e" x="63.623047"/>
       <use xlink:href="#DejaVuSans-34" x="95.410156"/>
      </g>
     </g>
    </g>
    <g id="text_6">
     <!-- Importance -->
     <g transform="translate(414.921875 346.316563) scale(0.1 -0.1)">
      <defs>
       <path id="DejaVuSans-49" d="M 628 4666 
L 1259 4666 
L 1259 0 
L 628 0 
L 628 4666 
z
" transform="scale(0.015625)"/>
       <path id="DejaVuSans-6d" d="M 3328 2828 
Q 3544 3216 3844 3400 
Q 4144 3584 4550 3584 
Q 5097 3584 5394 3201 
Q 5691 2819 5691 2113 
L 5691 0 
L 5113 0 
L 5113 2094 
Q 5113 2597 4934 2840 
Q 4756 3084 4391 3084 
Q 3944 3084 3684 2787 
Q 3425 2491 3425 1978 
L 3425 0 
L 2847 0 
L 2847 2094 
Q 2847 2600 2669 2842 
Q 2491 3084 2119 3084 
Q 1678 3084 1418 2786 
Q 1159 2488 1159 1978 
L 1159 0 
L 581 0 
L 581 3500 
L 1159 3500 
L 1159 2956 
Q 1356 3278 1631 3431 
Q 1906 3584 2284 3584 
Q 2666 3584 2933 3390 
Q 3200 3197 3328 2828 
z
" transform="scale(0.015625)"/>
       <path id="DejaVuSans-70" d="M 1159 525 
L 1159 -1331 
L 581 -1331 
L 581 3500 
L 1159 3500 
L 1159 2969 
Q 1341 3281 1617 3432 
Q 1894 3584 2278 3584 
Q 2916 3584 3314 3078 
Q 3713 2572 3713 1747 
Q 3713 922 3314 415 
Q 2916 -91 2278 -91 
Q 1894 -91 1617 61 
Q 1341 213 1159 525 
z
M 3116 1747 
Q 3116 2381 2855 2742 
Q 2594 3103 2138 3103 
Q 1681 3103 1420 2742 
Q 1159 2381 1159 1747 
Q 1159 1113 1420 752 
Q 1681 391 2138 391 
Q 2594 391 2855 752 
Q 3116 1113 3116 1747 
z
" transform="scale(0.015625)"/>
       <path id="DejaVuSans-6f" d="M 1959 3097 
Q 1497 3097 1228 2736 
Q 959 2375 959 1747 
Q 959 1119 1226 758 
Q 1494 397 1959 397 
Q 2419 397 2687 759 
Q 2956 1122 2956 1747 
Q 2956 2369 2687 2733 
Q 2419 3097 1959 3097 
z
M 1959 3584 
Q 2709 3584 3137 3096 
Q 3566 2609 3566 1747 
Q 3566 888 3137 398 
Q 2709 -91 1959 -91 
Q 1206 -91 779 398 
Q 353 888 353 1747 
Q 353 2609 779 3096 
Q 1206 3584 1959 3584 
z
" transform="scale(0.015625)"/>
       <path id="DejaVuSans-72" d="M 2631 2963 
Q 2534 3019 2420 3045 
Q 2306 3072 2169 3072 
Q 1681 3072 1420 2755 
Q 1159 2438 1159 1844 
L 1159 0 
L 581 0 
L 581 3500 
L 1159 3500 
L 1159 2956 
Q 1341 3275 1631 3429 
Q 1922 3584 2338 3584 
Q 2397 3584 2469 3576 
Q 2541 3569 2628 3553 
L 2631 2963 
z
" transform="scale(0.015625)"/>
       <path id="DejaVuSans-74" d="M 1172 4494 
L 1172 3500 
L 2356 3500 
L 2356 3053 
L 1172 3053 
L 1172 1153 
Q 1172 725 1289 603 
Q 1406 481 1766 481 
L 2356 481 
L 2356 0 
L 1766 0 
Q 1100 0 847 248 
Q 594 497 594 1153 
L 594 3053 
L 172 3053 
L 172 3500 
L 594 3500 
L 594 4494 
L 1172 4494 
z
" transform="scale(0.015625)"/>
       <path id="DejaVuSans-61" d="M 2194 1759 
Q 1497 1759 1228 1600 
Q 959 1441 959 1056 
Q 959 750 1161 570 
Q 1363 391 1709 391 
Q 2188 391 2477 730 
Q 2766 1069 2766 1631 
L 2766 1759 
L 2194 1759 
z
M 3341 1997 
L 3341 0 
L 2766 0 
L 2766 531 
Q 2569 213 2275 61 
Q 1981 -91 1556 -91 
Q 1019 -91 701 211 
Q 384 513 384 1019 
Q 384 1609 779 1909 
Q 1175 2209 1959 2209 
L 2766 2209 
L 2766 2266 
Q 2766 2663 2505 2880 
Q 2244 3097 1772 3097 
Q 1472 3097 1187 3025 
Q 903 2953 641 2809 
L 641 3341 
Q 956 3463 1253 3523 
Q 1550 3584 1831 3584 
Q 2591 3584 2966 3190 
Q 3341 2797 3341 1997 
z
" transform="scale(0.015625)"/>
       <path id="DejaVuSans-6e" d="M 3513 2113 
L 3513 0 
L 2938 0 
L 2938 2094 
Q 2938 2591 2744 2837 
Q 2550 3084 2163 3084 
Q 1697 3084 1428 2787 
Q 1159 2491 1159 1978 
L 1159 0 
L 581 0 
L 581 3500 
L 1159 3500 
L 1159 2956 
Q 1366 3272 1645 3428 
Q 1925 3584 2291 3584 
Q 2894 3584 3203 3211 
Q 3513 2838 3513 2113 
z
" transform="scale(0.015625)"/>
       <path id="DejaVuSans-63" d="M 3122 3366 
L 3122 2828 
Q 2878 2963 2633 3030 
Q 2388 3097 2138 3097 
Q 1578 3097 1268 2742 
Q 959 2388 959 1747 
Q 959 1106 1268 751 
Q 1578 397 2138 397 
Q 2388 397 2633 464 
Q 2878 531 3122 666 
L 3122 134 
Q 2881 22 2623 -34 
Q 2366 -91 2075 -91 
Q 1284 -91 818 406 
Q 353 903 353 1747 
Q 353 2603 823 3093 
Q 1294 3584 2113 3584 
Q 2378 3584 2631 3529 
Q 2884 3475 3122 3366 
z
" transform="scale(0.015625)"/>
       <path id="DejaVuSans-65" d="M 3597 1894 
L 3597 1613 
L 953 1613 
Q 991 1019 1311 708 
Q 1631 397 2203 397 
Q 2534 397 2845 478 
Q 3156 559 3463 722 
L 3463 178 
Q 3153 47 2828 -22 
Q 2503 -91 2169 -91 
Q 1331 -91 842 396 
Q 353 884 353 1716 
Q 353 2575 817 3079 
Q 1281 3584 2069 3584 
Q 2775 3584 3186 3129 
Q 3597 2675 3597 1894 
z
M 3022 2063 
Q 3016 2534 2758 2815 
Q 2500 3097 2075 3097 
Q 1594 3097 1305 2825 
Q 1016 2553 972 2059 
L 3022 2063 
z
" transform="scale(0.015625)"/>
      </defs>
      <use xlink:href="#DejaVuSans-49"/>
      <use xlink:href="#DejaVuSans-6d" x="29.492188"/>
      <use xlink:href="#DejaVuSans-70" x="126.904297"/>
      <use xlink:href="#DejaVuSans-6f" x="190.380859"/>
      <use xlink:href="#DejaVuSans-72" x="251.5625"/>
      <use xlink:href="#DejaVuSans-74" x="292.675781"/>
      <use xlink:href="#DejaVuSans-61" x="331.884766"/>
      <use xlink:href="#DejaVuSans-6e" x="393.164062"/>
      <use xlink:href="#DejaVuSans-63" x="456.542969"/>
      <use xlink:href="#DejaVuSans-65" x="511.523438"/>
     </g>
    </g>
   </g>
   <g id="matplotlib.axis_2">
    <g id="ytick_1">
     <g id="line2d_6">
      <defs>
       <path id="m9979fd022b" d="M 0 0 
L -3.5 0 
" style="stroke: #000000; stroke-width: 0.8"/>
      </defs>
      <g>
       <use xlink:href="#m9979fd022b" x="177.95" y="299.080426" style="stroke: #000000; stroke-width: 0.8"/>
      </g>
     </g>
     <g id="text_7">
      <!-- inq.last.6mths -->
      <g transform="translate(135.236719 300.980035) scale(0.05 -0.05)">
       <defs>
        <path id="DejaVuSans-69" d="M 603 3500 
L 1178 3500 
L 1178 0 
L 603 0 
L 603 3500 
z
M 603 4863 
L 1178 4863 
L 1178 4134 
L 603 4134 
L 603 4863 
z
" transform="scale(0.015625)"/>
        <path id="DejaVuSans-71" d="M 947 1747 
Q 947 1113 1208 752 
Q 1469 391 1925 391 
Q 2381 391 2643 752 
Q 2906 1113 2906 1747 
Q 2906 2381 2643 2742 
Q 2381 3103 1925 3103 
Q 1469 3103 1208 2742 
Q 947 2381 947 1747 
z
M 2906 525 
Q 2725 213 2448 61 
Q 2172 -91 1784 -91 
Q 1150 -91 751 415 
Q 353 922 353 1747 
Q 353 2572 751 3078 
Q 1150 3584 1784 3584 
Q 2172 3584 2448 3432 
Q 2725 3281 2906 2969 
L 2906 3500 
L 3481 3500 
L 3481 -1331 
L 2906 -1331 
L 2906 525 
z
" transform="scale(0.015625)"/>
        <path id="DejaVuSans-6c" d="M 603 4863 
L 1178 4863 
L 1178 0 
L 603 0 
L 603 4863 
z
" transform="scale(0.015625)"/>
        <path id="DejaVuSans-73" d="M 2834 3397 
L 2834 2853 
Q 2591 2978 2328 3040 
Q 2066 3103 1784 3103 
Q 1356 3103 1142 2972 
Q 928 2841 928 2578 
Q 928 2378 1081 2264 
Q 1234 2150 1697 2047 
L 1894 2003 
Q 2506 1872 2764 1633 
Q 3022 1394 3022 966 
Q 3022 478 2636 193 
Q 2250 -91 1575 -91 
Q 1294 -91 989 -36 
Q 684 19 347 128 
L 347 722 
Q 666 556 975 473 
Q 1284 391 1588 391 
Q 1994 391 2212 530 
Q 2431 669 2431 922 
Q 2431 1156 2273 1281 
Q 2116 1406 1581 1522 
L 1381 1569 
Q 847 1681 609 1914 
Q 372 2147 372 2553 
Q 372 3047 722 3315 
Q 1072 3584 1716 3584 
Q 2034 3584 2315 3537 
Q 2597 3491 2834 3397 
z
" transform="scale(0.015625)"/>
        <path id="DejaVuSans-36" d="M 2113 2584 
Q 1688 2584 1439 2293 
Q 1191 2003 1191 1497 
Q 1191 994 1439 701 
Q 1688 409 2113 409 
Q 2538 409 2786 701 
Q 3034 994 3034 1497 
Q 3034 2003 2786 2293 
Q 2538 2584 2113 2584 
z
M 3366 4563 
L 3366 3988 
Q 3128 4100 2886 4159 
Q 2644 4219 2406 4219 
Q 1781 4219 1451 3797 
Q 1122 3375 1075 2522 
Q 1259 2794 1537 2939 
Q 1816 3084 2150 3084 
Q 2853 3084 3261 2657 
Q 3669 2231 3669 1497 
Q 3669 778 3244 343 
Q 2819 -91 2113 -91 
Q 1303 -91 875 529 
Q 447 1150 447 2328 
Q 447 3434 972 4092 
Q 1497 4750 2381 4750 
Q 2619 4750 2861 4703 
Q 3103 4656 3366 4563 
z
" transform="scale(0.015625)"/>
        <path id="DejaVuSans-68" d="M 3513 2113 
L 3513 0 
L 2938 0 
L 2938 2094 
Q 2938 2591 2744 2837 
Q 2550 3084 2163 3084 
Q 1697 3084 1428 2787 
Q 1159 2491 1159 1978 
L 1159 0 
L 581 0 
L 581 4863 
L 1159 4863 
L 1159 2956 
Q 1366 3272 1645 3428 
Q 1925 3584 2291 3584 
Q 2894 3584 3203 3211 
Q 3513 2838 3513 2113 
z
" transform="scale(0.015625)"/>
       </defs>
       <use xlink:href="#DejaVuSans-69"/>
       <use xlink:href="#DejaVuSans-6e" x="27.783203"/>
       <use xlink:href="#DejaVuSans-71" x="91.162109"/>
       <use xlink:href="#DejaVuSans-2e" x="154.638672"/>
       <use xlink:href="#DejaVuSans-6c" x="186.425781"/>
       <use xlink:href="#DejaVuSans-61" x="214.208984"/>
       <use xlink:href="#DejaVuSans-73" x="275.488281"/>
       <use xlink:href="#DejaVuSans-74" x="327.587891"/>
       <use xlink:href="#DejaVuSans-2e" x="366.796875"/>
       <use xlink:href="#DejaVuSans-36" x="398.583984"/>
       <use xlink:href="#DejaVuSans-6d" x="462.207031"/>
       <use xlink:href="#DejaVuSans-74" x="559.619141"/>
       <use xlink:href="#DejaVuSans-68" x="598.828125"/>
       <use xlink:href="#DejaVuSans-73" x="662.207031"/>
      </g>
     </g>
    </g>
    <g id="ytick_2">
     <g id="line2d_7">
      <g>
       <use xlink:href="#m9979fd022b" x="177.95" y="284.931489" style="stroke: #000000; stroke-width: 0.8"/>
      </g>
     </g>
     <g id="text_8">
      <!-- fico -->
      <g transform="translate(161.992188 286.831099) scale(0.05 -0.05)">
       <defs>
        <path id="DejaVuSans-66" d="M 2375 4863 
L 2375 4384 
L 1825 4384 
Q 1516 4384 1395 4259 
Q 1275 4134 1275 3809 
L 1275 3500 
L 2222 3500 
L 2222 3053 
L 1275 3053 
L 1275 0 
L 697 0 
L 697 3053 
L 147 3053 
L 147 3500 
L 697 3500 
L 697 3744 
Q 697 4328 969 4595 
Q 1241 4863 1831 4863 
L 2375 4863 
z
" transform="scale(0.015625)"/>
       </defs>
       <use xlink:href="#DejaVuSans-66"/>
       <use xlink:href="#DejaVuSans-69" x="35.205078"/>
       <use xlink:href="#DejaVuSans-63" x="62.988281"/>
       <use xlink:href="#DejaVuSans-6f" x="117.96875"/>
      </g>
     </g>
    </g>
    <g id="ytick_3">
     <g id="line2d_8">
      <g>
       <use xlink:href="#m9979fd022b" x="177.95" y="270.782553" style="stroke: #000000; stroke-width: 0.8"/>
      </g>
     </g>
     <g id="text_9">
      <!-- days.with.cr.line -->
      <g transform="translate(130.401563 272.682163) scale(0.05 -0.05)">
       <defs>
        <path id="DejaVuSans-64" d="M 2906 2969 
L 2906 4863 
L 3481 4863 
L 3481 0 
L 2906 0 
L 2906 525 
Q 2725 213 2448 61 
Q 2172 -91 1784 -91 
Q 1150 -91 751 415 
Q 353 922 353 1747 
Q 353 2572 751 3078 
Q 1150 3584 1784 3584 
Q 2172 3584 2448 3432 
Q 2725 3281 2906 2969 
z
M 947 1747 
Q 947 1113 1208 752 
Q 1469 391 1925 391 
Q 2381 391 2643 752 
Q 2906 1113 2906 1747 
Q 2906 2381 2643 2742 
Q 2381 3103 1925 3103 
Q 1469 3103 1208 2742 
Q 947 2381 947 1747 
z
" transform="scale(0.015625)"/>
        <path id="DejaVuSans-79" d="M 2059 -325 
Q 1816 -950 1584 -1140 
Q 1353 -1331 966 -1331 
L 506 -1331 
L 506 -850 
L 844 -850 
Q 1081 -850 1212 -737 
Q 1344 -625 1503 -206 
L 1606 56 
L 191 3500 
L 800 3500 
L 1894 763 
L 2988 3500 
L 3597 3500 
L 2059 -325 
z
" transform="scale(0.015625)"/>
        <path id="DejaVuSans-77" d="M 269 3500 
L 844 3500 
L 1563 769 
L 2278 3500 
L 2956 3500 
L 3675 769 
L 4391 3500 
L 4966 3500 
L 4050 0 
L 3372 0 
L 2619 2869 
L 1863 0 
L 1184 0 
L 269 3500 
z
" transform="scale(0.015625)"/>
       </defs>
       <use xlink:href="#DejaVuSans-64"/>
       <use xlink:href="#DejaVuSans-61" x="63.476562"/>
       <use xlink:href="#DejaVuSans-79" x="124.755859"/>
       <use xlink:href="#DejaVuSans-73" x="183.935547"/>
       <use xlink:href="#DejaVuSans-2e" x="236.035156"/>
       <use xlink:href="#DejaVuSans-77" x="267.822266"/>
       <use xlink:href="#DejaVuSans-69" x="349.609375"/>
       <use xlink:href="#DejaVuSans-74" x="377.392578"/>
       <use xlink:href="#DejaVuSans-68" x="416.601562"/>
       <use xlink:href="#DejaVuSans-2e" x="479.980469"/>
       <use xlink:href="#DejaVuSans-63" x="511.767578"/>
       <use xlink:href="#DejaVuSans-72" x="566.748047"/>
       <use xlink:href="#DejaVuSans-2e" x="598.736328"/>
       <use xlink:href="#DejaVuSans-6c" x="630.523438"/>
       <use xlink:href="#DejaVuSans-69" x="658.306641"/>
       <use xlink:href="#DejaVuSans-6e" x="686.089844"/>
       <use xlink:href="#DejaVuSans-65" x="749.46875"/>
      </g>
     </g>
    </g>
    <g id="ytick_4">
     <g id="line2d_9">
      <g>
       <use xlink:href="#m9979fd022b" x="177.95" y="256.633617" style="stroke: #000000; stroke-width: 0.8"/>
      </g>
     </g>
     <g id="text_10">
      <!-- revol.bal -->
      <g transform="translate(149.30625 258.533226) scale(0.05 -0.05)">
       <defs>
        <path id="DejaVuSans-76" d="M 191 3500 
L 800 3500 
L 1894 563 
L 2988 3500 
L 3597 3500 
L 2284 0 
L 1503 0 
L 191 3500 
z
" transform="scale(0.015625)"/>
        <path id="DejaVuSans-62" d="M 3116 1747 
Q 3116 2381 2855 2742 
Q 2594 3103 2138 3103 
Q 1681 3103 1420 2742 
Q 1159 2381 1159 1747 
Q 1159 1113 1420 752 
Q 1681 391 2138 391 
Q 2594 391 2855 752 
Q 3116 1113 3116 1747 
z
M 1159 2969 
Q 1341 3281 1617 3432 
Q 1894 3584 2278 3584 
Q 2916 3584 3314 3078 
Q 3713 2572 3713 1747 
Q 3713 922 3314 415 
Q 2916 -91 2278 -91 
Q 1894 -91 1617 61 
Q 1341 213 1159 525 
L 1159 0 
L 581 0 
L 581 4863 
L 1159 4863 
L 1159 2969 
z
" transform="scale(0.015625)"/>
       </defs>
       <use xlink:href="#DejaVuSans-72"/>
       <use xlink:href="#DejaVuSans-65" x="38.863281"/>
       <use xlink:href="#DejaVuSans-76" x="100.386719"/>
       <use xlink:href="#DejaVuSans-6f" x="159.566406"/>
       <use xlink:href="#DejaVuSans-6c" x="220.748047"/>
       <use xlink:href="#DejaVuSans-2e" x="248.53125"/>
       <use xlink:href="#DejaVuSans-62" x="280.318359"/>
       <use xlink:href="#DejaVuSans-61" x="343.794922"/>
       <use xlink:href="#DejaVuSans-6c" x="405.074219"/>
      </g>
     </g>
    </g>
    <g id="ytick_5">
     <g id="line2d_10">
      <g>
       <use xlink:href="#m9979fd022b" x="177.95" y="242.484681" style="stroke: #000000; stroke-width: 0.8"/>
      </g>
     </g>
     <g id="text_11">
      <!-- dti -->
      <g transform="translate(164.426563 244.38429) scale(0.05 -0.05)">
       <use xlink:href="#DejaVuSans-64"/>
       <use xlink:href="#DejaVuSans-74" x="63.476562"/>
       <use xlink:href="#DejaVuSans-69" x="102.685547"/>
      </g>
     </g>
    </g>
    <g id="ytick_6">
     <g id="line2d_11">
      <g>
       <use xlink:href="#m9979fd022b" x="177.95" y="228.335745" style="stroke: #000000; stroke-width: 0.8"/>
      </g>
     </g>
     <g id="text_12">
      <!-- log.annual.inc -->
      <g transform="translate(135.81875 230.235354) scale(0.05 -0.05)">
       <defs>
        <path id="DejaVuSans-67" d="M 2906 1791 
Q 2906 2416 2648 2759 
Q 2391 3103 1925 3103 
Q 1463 3103 1205 2759 
Q 947 2416 947 1791 
Q 947 1169 1205 825 
Q 1463 481 1925 481 
Q 2391 481 2648 825 
Q 2906 1169 2906 1791 
z
M 3481 434 
Q 3481 -459 3084 -895 
Q 2688 -1331 1869 -1331 
Q 1566 -1331 1297 -1286 
Q 1028 -1241 775 -1147 
L 775 -588 
Q 1028 -725 1275 -790 
Q 1522 -856 1778 -856 
Q 2344 -856 2625 -561 
Q 2906 -266 2906 331 
L 2906 616 
Q 2728 306 2450 153 
Q 2172 0 1784 0 
Q 1141 0 747 490 
Q 353 981 353 1791 
Q 353 2603 747 3093 
Q 1141 3584 1784 3584 
Q 2172 3584 2450 3431 
Q 2728 3278 2906 2969 
L 2906 3500 
L 3481 3500 
L 3481 434 
z
" transform="scale(0.015625)"/>
        <path id="DejaVuSans-75" d="M 544 1381 
L 544 3500 
L 1119 3500 
L 1119 1403 
Q 1119 906 1312 657 
Q 1506 409 1894 409 
Q 2359 409 2629 706 
Q 2900 1003 2900 1516 
L 2900 3500 
L 3475 3500 
L 3475 0 
L 2900 0 
L 2900 538 
Q 2691 219 2414 64 
Q 2138 -91 1772 -91 
Q 1169 -91 856 284 
Q 544 659 544 1381 
z
M 1991 3584 
L 1991 3584 
z
" transform="scale(0.015625)"/>
       </defs>
       <use xlink:href="#DejaVuSans-6c"/>
       <use xlink:href="#DejaVuSans-6f" x="27.783203"/>
       <use xlink:href="#DejaVuSans-67" x="88.964844"/>
       <use xlink:href="#DejaVuSans-2e" x="152.441406"/>
       <use xlink:href="#DejaVuSans-61" x="184.228516"/>
       <use xlink:href="#DejaVuSans-6e" x="245.507812"/>
       <use xlink:href="#DejaVuSans-6e" x="308.886719"/>
       <use xlink:href="#DejaVuSans-75" x="372.265625"/>
       <use xlink:href="#DejaVuSans-61" x="435.644531"/>
       <use xlink:href="#DejaVuSans-6c" x="496.923828"/>
       <use xlink:href="#DejaVuSans-2e" x="524.707031"/>
       <use xlink:href="#DejaVuSans-69" x="556.494141"/>
       <use xlink:href="#DejaVuSans-6e" x="584.277344"/>
       <use xlink:href="#DejaVuSans-63" x="647.65625"/>
      </g>
     </g>
    </g>
    <g id="ytick_7">
     <g id="line2d_12">
      <g>
       <use xlink:href="#m9979fd022b" x="177.95" y="214.186809" style="stroke: #000000; stroke-width: 0.8"/>
      </g>
     </g>
     <g id="text_13">
      <!-- revol.util -->
      <g transform="translate(149.026563 216.086418) scale(0.05 -0.05)">
       <use xlink:href="#DejaVuSans-72"/>
       <use xlink:href="#DejaVuSans-65" x="38.863281"/>
       <use xlink:href="#DejaVuSans-76" x="100.386719"/>
       <use xlink:href="#DejaVuSans-6f" x="159.566406"/>
       <use xlink:href="#DejaVuSans-6c" x="220.748047"/>
       <use xlink:href="#DejaVuSans-2e" x="248.53125"/>
       <use xlink:href="#DejaVuSans-75" x="280.318359"/>
       <use xlink:href="#DejaVuSans-74" x="343.697266"/>
       <use xlink:href="#DejaVuSans-69" x="382.90625"/>
       <use xlink:href="#DejaVuSans-6c" x="410.689453"/>
      </g>
     </g>
    </g>
    <g id="ytick_8">
     <g id="line2d_13">
      <g>
       <use xlink:href="#m9979fd022b" x="177.95" y="200.037872" style="stroke: #000000; stroke-width: 0.8"/>
      </g>
     </g>
     <g id="text_14">
      <!-- int.rate -->
      <g transform="translate(152.686719 201.937482) scale(0.05 -0.05)">
       <use xlink:href="#DejaVuSans-69"/>
       <use xlink:href="#DejaVuSans-6e" x="27.783203"/>
       <use xlink:href="#DejaVuSans-74" x="91.162109"/>
       <use xlink:href="#DejaVuSans-2e" x="130.371094"/>
       <use xlink:href="#DejaVuSans-72" x="162.158203"/>
       <use xlink:href="#DejaVuSans-61" x="203.271484"/>
       <use xlink:href="#DejaVuSans-74" x="264.550781"/>
       <use xlink:href="#DejaVuSans-65" x="303.759766"/>
      </g>
     </g>
    </g>
    <g id="ytick_9">
     <g id="line2d_14">
      <g>
       <use xlink:href="#m9979fd022b" x="177.95" y="185.888936" style="stroke: #000000; stroke-width: 0.8"/>
      </g>
     </g>
     <g id="text_15">
      <!-- purpose_credit_card -->
      <g transform="translate(120.389063 187.788546) scale(0.05 -0.05)">
       <defs>
        <path id="DejaVuSans-5f" d="M 3263 -1063 
L 3263 -1509 
L -63 -1509 
L -63 -1063 
L 3263 -1063 
z
" transform="scale(0.015625)"/>
       </defs>
       <use xlink:href="#DejaVuSans-70"/>
       <use xlink:href="#DejaVuSans-75" x="63.476562"/>
       <use xlink:href="#DejaVuSans-72" x="126.855469"/>
       <use xlink:href="#DejaVuSans-70" x="167.96875"/>
       <use xlink:href="#DejaVuSans-6f" x="231.445312"/>
       <use xlink:href="#DejaVuSans-73" x="292.626953"/>
       <use xlink:href="#DejaVuSans-65" x="344.726562"/>
       <use xlink:href="#DejaVuSans-5f" x="406.25"/>
       <use xlink:href="#DejaVuSans-63" x="456.25"/>
       <use xlink:href="#DejaVuSans-72" x="511.230469"/>
       <use xlink:href="#DejaVuSans-65" x="550.09375"/>
       <use xlink:href="#DejaVuSans-64" x="611.617188"/>
       <use xlink:href="#DejaVuSans-69" x="675.09375"/>
       <use xlink:href="#DejaVuSans-74" x="702.876953"/>
       <use xlink:href="#DejaVuSans-5f" x="742.085938"/>
       <use xlink:href="#DejaVuSans-63" x="792.085938"/>
       <use xlink:href="#DejaVuSans-61" x="847.066406"/>
       <use xlink:href="#DejaVuSans-72" x="908.345703"/>
       <use xlink:href="#DejaVuSans-64" x="947.708984"/>
      </g>
     </g>
    </g>
    <g id="ytick_10">
     <g id="line2d_15">
      <g>
       <use xlink:href="#m9979fd022b" x="177.95" y="171.74" style="stroke: #000000; stroke-width: 0.8"/>
      </g>
     </g>
     <g id="text_16">
      <!-- purpose_major_purchase -->
      <g transform="translate(108.249219 173.639609) scale(0.05 -0.05)">
       <defs>
        <path id="DejaVuSans-6a" d="M 603 3500 
L 1178 3500 
L 1178 -63 
Q 1178 -731 923 -1031 
Q 669 -1331 103 -1331 
L -116 -1331 
L -116 -844 
L 38 -844 
Q 366 -844 484 -692 
Q 603 -541 603 -63 
L 603 3500 
z
M 603 4863 
L 1178 4863 
L 1178 4134 
L 603 4134 
L 603 4863 
z
" transform="scale(0.015625)"/>
       </defs>
       <use xlink:href="#DejaVuSans-70"/>
       <use xlink:href="#DejaVuSans-75" x="63.476562"/>
       <use xlink:href="#DejaVuSans-72" x="126.855469"/>
       <use xlink:href="#DejaVuSans-70" x="167.96875"/>
       <use xlink:href="#DejaVuSans-6f" x="231.445312"/>
       <use xlink:href="#DejaVuSans-73" x="292.626953"/>
       <use xlink:href="#DejaVuSans-65" x="344.726562"/>
       <use xlink:href="#DejaVuSans-5f" x="406.25"/>
       <use xlink:href="#DejaVuSans-6d" x="456.25"/>
       <use xlink:href="#DejaVuSans-61" x="553.662109"/>
       <use xlink:href="#DejaVuSans-6a" x="614.941406"/>
       <use xlink:href="#DejaVuSans-6f" x="642.724609"/>
       <use xlink:href="#DejaVuSans-72" x="703.90625"/>
       <use xlink:href="#DejaVuSans-5f" x="745.019531"/>
       <use xlink:href="#DejaVuSans-70" x="795.019531"/>
       <use xlink:href="#DejaVuSans-75" x="858.496094"/>
       <use xlink:href="#DejaVuSans-72" x="921.875"/>
       <use xlink:href="#DejaVuSans-63" x="960.738281"/>
       <use xlink:href="#DejaVuSans-68" x="1015.71875"/>
       <use xlink:href="#DejaVuSans-61" x="1079.097656"/>
       <use xlink:href="#DejaVuSans-73" x="1140.376953"/>
       <use xlink:href="#DejaVuSans-65" x="1192.476562"/>
      </g>
     </g>
    </g>
    <g id="ytick_11">
     <g id="line2d_16">
      <g>
       <use xlink:href="#m9979fd022b" x="177.95" y="157.591064" style="stroke: #000000; stroke-width: 0.8"/>
      </g>
     </g>
     <g id="text_17">
      <!-- purpose_all_other -->
      <g transform="translate(126.474219 159.490673) scale(0.05 -0.05)">
       <use xlink:href="#DejaVuSans-70"/>
       <use xlink:href="#DejaVuSans-75" x="63.476562"/>
       <use xlink:href="#DejaVuSans-72" x="126.855469"/>
       <use xlink:href="#DejaVuSans-70" x="167.96875"/>
       <use xlink:href="#DejaVuSans-6f" x="231.445312"/>
       <use xlink:href="#DejaVuSans-73" x="292.626953"/>
       <use xlink:href="#DejaVuSans-65" x="344.726562"/>
       <use xlink:href="#DejaVuSans-5f" x="406.25"/>
       <use xlink:href="#DejaVuSans-61" x="456.25"/>
       <use xlink:href="#DejaVuSans-6c" x="517.529297"/>
       <use xlink:href="#DejaVuSans-6c" x="545.3125"/>
       <use xlink:href="#DejaVuSans-5f" x="573.095703"/>
       <use xlink:href="#DejaVuSans-6f" x="623.095703"/>
       <use xlink:href="#DejaVuSans-74" x="684.277344"/>
       <use xlink:href="#DejaVuSans-68" x="723.486328"/>
       <use xlink:href="#DejaVuSans-65" x="786.865234"/>
       <use xlink:href="#DejaVuSans-72" x="848.388672"/>
      </g>
     </g>
    </g>
    <g id="ytick_12">
     <g id="line2d_17">
      <g>
       <use xlink:href="#m9979fd022b" x="177.95" y="143.442128" style="stroke: #000000; stroke-width: 0.8"/>
      </g>
     </g>
     <g id="text_18">
      <!-- purpose_debt_consolidation -->
      <g transform="translate(101.016406 145.341737) scale(0.05 -0.05)">
       <use xlink:href="#DejaVuSans-70"/>
       <use xlink:href="#DejaVuSans-75" x="63.476562"/>
       <use xlink:href="#DejaVuSans-72" x="126.855469"/>
       <use xlink:href="#DejaVuSans-70" x="167.96875"/>
       <use xlink:href="#DejaVuSans-6f" x="231.445312"/>
       <use xlink:href="#DejaVuSans-73" x="292.626953"/>
       <use xlink:href="#DejaVuSans-65" x="344.726562"/>
       <use xlink:href="#DejaVuSans-5f" x="406.25"/>
       <use xlink:href="#DejaVuSans-64" x="456.25"/>
       <use xlink:href="#DejaVuSans-65" x="519.726562"/>
       <use xlink:href="#DejaVuSans-62" x="581.25"/>
       <use xlink:href="#DejaVuSans-74" x="644.726562"/>
       <use xlink:href="#DejaVuSans-5f" x="683.935547"/>
       <use xlink:href="#DejaVuSans-63" x="733.935547"/>
       <use xlink:href="#DejaVuSans-6f" x="788.916016"/>
       <use xlink:href="#DejaVuSans-6e" x="850.097656"/>
       <use xlink:href="#DejaVuSans-73" x="913.476562"/>
       <use xlink:href="#DejaVuSans-6f" x="965.576172"/>
       <use xlink:href="#DejaVuSans-6c" x="1026.757812"/>
       <use xlink:href="#DejaVuSans-69" x="1054.541016"/>
       <use xlink:href="#DejaVuSans-64" x="1082.324219"/>
       <use xlink:href="#DejaVuSans-61" x="1145.800781"/>
       <use xlink:href="#DejaVuSans-74" x="1207.080078"/>
       <use xlink:href="#DejaVuSans-69" x="1246.289062"/>
       <use xlink:href="#DejaVuSans-6f" x="1274.072266"/>
       <use xlink:href="#DejaVuSans-6e" x="1335.253906"/>
      </g>
     </g>
    </g>
    <g id="ytick_13">
     <g id="line2d_18">
      <g>
       <use xlink:href="#m9979fd022b" x="177.95" y="129.293191" style="stroke: #000000; stroke-width: 0.8"/>
      </g>
     </g>
     <g id="text_19">
      <!-- installment -->
      <g transform="translate(142.909375 131.192801) scale(0.05 -0.05)">
       <use xlink:href="#DejaVuSans-69"/>
       <use xlink:href="#DejaVuSans-6e" x="27.783203"/>
       <use xlink:href="#DejaVuSans-73" x="91.162109"/>
       <use xlink:href="#DejaVuSans-74" x="143.261719"/>
       <use xlink:href="#DejaVuSans-61" x="182.470703"/>
       <use xlink:href="#DejaVuSans-6c" x="243.75"/>
       <use xlink:href="#DejaVuSans-6c" x="271.533203"/>
       <use xlink:href="#DejaVuSans-6d" x="299.316406"/>
       <use xlink:href="#DejaVuSans-65" x="396.728516"/>
       <use xlink:href="#DejaVuSans-6e" x="458.251953"/>
       <use xlink:href="#DejaVuSans-74" x="521.630859"/>
      </g>
     </g>
    </g>
    <g id="ytick_14">
     <g id="line2d_19">
      <g>
       <use xlink:href="#m9979fd022b" x="177.95" y="115.144255" style="stroke: #000000; stroke-width: 0.8"/>
      </g>
     </g>
     <g id="text_20">
      <!-- pub.rec -->
      <g transform="translate(152.075 117.043865) scale(0.05 -0.05)">
       <use xlink:href="#DejaVuSans-70"/>
       <use xlink:href="#DejaVuSans-75" x="63.476562"/>
       <use xlink:href="#DejaVuSans-62" x="126.855469"/>
       <use xlink:href="#DejaVuSans-2e" x="190.332031"/>
       <use xlink:href="#DejaVuSans-72" x="222.119141"/>
       <use xlink:href="#DejaVuSans-65" x="260.982422"/>
       <use xlink:href="#DejaVuSans-63" x="322.505859"/>
      </g>
     </g>
    </g>
    <g id="ytick_15">
     <g id="line2d_20">
      <g>
       <use xlink:href="#m9979fd022b" x="177.95" y="100.995319" style="stroke: #000000; stroke-width: 0.8"/>
      </g>
     </g>
     <g id="text_21">
      <!-- delinq.2yrs -->
      <g transform="translate(143.188281 102.894929) scale(0.05 -0.05)">
       <use xlink:href="#DejaVuSans-64"/>
       <use xlink:href="#DejaVuSans-65" x="63.476562"/>
       <use xlink:href="#DejaVuSans-6c" x="125"/>
       <use xlink:href="#DejaVuSans-69" x="152.783203"/>
       <use xlink:href="#DejaVuSans-6e" x="180.566406"/>
       <use xlink:href="#DejaVuSans-71" x="243.945312"/>
       <use xlink:href="#DejaVuSans-2e" x="307.421875"/>
       <use xlink:href="#DejaVuSans-32" x="339.208984"/>
       <use xlink:href="#DejaVuSans-79" x="402.832031"/>
       <use xlink:href="#DejaVuSans-72" x="462.011719"/>
       <use xlink:href="#DejaVuSans-73" x="503.125"/>
      </g>
     </g>
    </g>
    <g id="ytick_16">
     <g id="line2d_21">
      <g>
       <use xlink:href="#m9979fd022b" x="177.95" y="86.846383" style="stroke: #000000; stroke-width: 0.8"/>
      </g>
     </g>
     <g id="text_22">
      <!-- purpose_educational -->
      <g transform="translate(118.873438 88.745992) scale(0.05 -0.05)">
       <use xlink:href="#DejaVuSans-70"/>
       <use xlink:href="#DejaVuSans-75" x="63.476562"/>
       <use xlink:href="#DejaVuSans-72" x="126.855469"/>
       <use xlink:href="#DejaVuSans-70" x="167.96875"/>
       <use xlink:href="#DejaVuSans-6f" x="231.445312"/>
       <use xlink:href="#DejaVuSans-73" x="292.626953"/>
       <use xlink:href="#DejaVuSans-65" x="344.726562"/>
       <use xlink:href="#DejaVuSans-5f" x="406.25"/>
       <use xlink:href="#DejaVuSans-65" x="456.25"/>
       <use xlink:href="#DejaVuSans-64" x="517.773438"/>
       <use xlink:href="#DejaVuSans-75" x="581.25"/>
       <use xlink:href="#DejaVuSans-63" x="644.628906"/>
       <use xlink:href="#DejaVuSans-61" x="699.609375"/>
       <use xlink:href="#DejaVuSans-74" x="760.888672"/>
       <use xlink:href="#DejaVuSans-69" x="800.097656"/>
       <use xlink:href="#DejaVuSans-6f" x="827.880859"/>
       <use xlink:href="#DejaVuSans-6e" x="889.0625"/>
       <use xlink:href="#DejaVuSans-61" x="952.441406"/>
       <use xlink:href="#DejaVuSans-6c" x="1013.720703"/>
      </g>
     </g>
    </g>
    <g id="ytick_17">
     <g id="line2d_22">
      <g>
       <use xlink:href="#m9979fd022b" x="177.95" y="72.697447" style="stroke: #000000; stroke-width: 0.8"/>
      </g>
     </g>
     <g id="text_23">
      <!-- purpose_home_improvement -->
      <g transform="translate(97.914063 74.597056) scale(0.05 -0.05)">
       <use xlink:href="#DejaVuSans-70"/>
       <use xlink:href="#DejaVuSans-75" x="63.476562"/>
       <use xlink:href="#DejaVuSans-72" x="126.855469"/>
       <use xlink:href="#DejaVuSans-70" x="167.96875"/>
       <use xlink:href="#DejaVuSans-6f" x="231.445312"/>
       <use xlink:href="#DejaVuSans-73" x="292.626953"/>
       <use xlink:href="#DejaVuSans-65" x="344.726562"/>
       <use xlink:href="#DejaVuSans-5f" x="406.25"/>
       <use xlink:href="#DejaVuSans-68" x="456.25"/>
       <use xlink:href="#DejaVuSans-6f" x="519.628906"/>
       <use xlink:href="#DejaVuSans-6d" x="580.810547"/>
       <use xlink:href="#DejaVuSans-65" x="678.222656"/>
       <use xlink:href="#DejaVuSans-5f" x="739.746094"/>
       <use xlink:href="#DejaVuSans-69" x="789.746094"/>
       <use xlink:href="#DejaVuSans-6d" x="817.529297"/>
       <use xlink:href="#DejaVuSans-70" x="914.941406"/>
       <use xlink:href="#DejaVuSans-72" x="978.417969"/>
       <use xlink:href="#DejaVuSans-6f" x="1017.28125"/>
       <use xlink:href="#DejaVuSans-76" x="1078.462891"/>
       <use xlink:href="#DejaVuSans-65" x="1137.642578"/>
       <use xlink:href="#DejaVuSans-6d" x="1199.166016"/>
       <use xlink:href="#DejaVuSans-65" x="1296.578125"/>
       <use xlink:href="#DejaVuSans-6e" x="1358.101562"/>
       <use xlink:href="#DejaVuSans-74" x="1421.480469"/>
      </g>
     </g>
    </g>
    <g id="ytick_18">
     <g id="line2d_23">
      <g>
       <use xlink:href="#m9979fd022b" x="177.95" y="58.548511" style="stroke: #000000; stroke-width: 0.8"/>
      </g>
     </g>
     <g id="text_24">
      <!-- not.fully.paid -->
      <g transform="translate(138.828125 60.44812) scale(0.05 -0.05)">
       <use xlink:href="#DejaVuSans-6e"/>
       <use xlink:href="#DejaVuSans-6f" x="63.378906"/>
       <use xlink:href="#DejaVuSans-74" x="124.560547"/>
       <use xlink:href="#DejaVuSans-2e" x="163.769531"/>
       <use xlink:href="#DejaVuSans-66" x="195.556641"/>
       <use xlink:href="#DejaVuSans-75" x="230.761719"/>
       <use xlink:href="#DejaVuSans-6c" x="294.140625"/>
       <use xlink:href="#DejaVuSans-6c" x="321.923828"/>
       <use xlink:href="#DejaVuSans-79" x="349.707031"/>
       <use xlink:href="#DejaVuSans-2e" x="394.636719"/>
       <use xlink:href="#DejaVuSans-70" x="426.423828"/>
       <use xlink:href="#DejaVuSans-61" x="489.900391"/>
       <use xlink:href="#DejaVuSans-69" x="551.179688"/>
       <use xlink:href="#DejaVuSans-64" x="578.962891"/>
      </g>
     </g>
    </g>
    <g id="ytick_19">
     <g id="line2d_24">
      <g>
       <use xlink:href="#m9979fd022b" x="177.95" y="44.399574" style="stroke: #000000; stroke-width: 0.8"/>
      </g>
     </g>
     <g id="text_25">
      <!-- purpose_small_business -->
      <g transform="translate(110.528125 46.299184) scale(0.05 -0.05)">
       <use xlink:href="#DejaVuSans-70"/>
       <use xlink:href="#DejaVuSans-75" x="63.476562"/>
       <use xlink:href="#DejaVuSans-72" x="126.855469"/>
       <use xlink:href="#DejaVuSans-70" x="167.96875"/>
       <use xlink:href="#DejaVuSans-6f" x="231.445312"/>
       <use xlink:href="#DejaVuSans-73" x="292.626953"/>
       <use xlink:href="#DejaVuSans-65" x="344.726562"/>
       <use xlink:href="#DejaVuSans-5f" x="406.25"/>
       <use xlink:href="#DejaVuSans-73" x="456.25"/>
       <use xlink:href="#DejaVuSans-6d" x="508.349609"/>
       <use xlink:href="#DejaVuSans-61" x="605.761719"/>
       <use xlink:href="#DejaVuSans-6c" x="667.041016"/>
       <use xlink:href="#DejaVuSans-6c" x="694.824219"/>
       <use xlink:href="#DejaVuSans-5f" x="722.607422"/>
       <use xlink:href="#DejaVuSans-62" x="772.607422"/>
       <use xlink:href="#DejaVuSans-75" x="836.083984"/>
       <use xlink:href="#DejaVuSans-73" x="899.462891"/>
       <use xlink:href="#DejaVuSans-69" x="951.5625"/>
       <use xlink:href="#DejaVuSans-6e" x="979.345703"/>
       <use xlink:href="#DejaVuSans-65" x="1042.724609"/>
       <use xlink:href="#DejaVuSans-73" x="1104.248047"/>
       <use xlink:href="#DejaVuSans-73" x="1156.347656"/>
      </g>
     </g>
    </g>
    <g id="text_26">
     <!-- Input Feature -->
     <g transform="translate(91.834375 205.165781) rotate(-90) scale(0.1 -0.1)">
      <defs>
       <path id="DejaVuSans-20" transform="scale(0.015625)"/>
       <path id="DejaVuSans-46" d="M 628 4666 
L 3309 4666 
L 3309 4134 
L 1259 4134 
L 1259 2759 
L 3109 2759 
L 3109 2228 
L 1259 2228 
L 1259 0 
L 628 0 
L 628 4666 
z
" transform="scale(0.015625)"/>
      </defs>
      <use xlink:href="#DejaVuSans-49"/>
      <use xlink:href="#DejaVuSans-6e" x="29.492188"/>
      <use xlink:href="#DejaVuSans-70" x="92.871094"/>
      <use xlink:href="#DejaVuSans-75" x="156.347656"/>
      <use xlink:href="#DejaVuSans-74" x="219.726562"/>
      <use xlink:href="#DejaVuSans-20" x="258.935547"/>
      <use xlink:href="#DejaVuSans-46" x="290.722656"/>
      <use xlink:href="#DejaVuSans-65" x="342.742188"/>
      <use xlink:href="#DejaVuSans-61" x="404.265625"/>
      <use xlink:href="#DejaVuSans-74" x="465.544922"/>
      <use xlink:href="#DejaVuSans-75" x="504.753906"/>
      <use xlink:href="#DejaVuSans-72" x="568.132812"/>
      <use xlink:href="#DejaVuSans-65" x="606.996094"/>
     </g>
    </g>
   </g>
   <g id="patch_22">
    <path d="M 177.95 318.04 
L 177.95 25.44 
" style="fill: none; stroke: #000000; stroke-width: 0.8; stroke-linejoin: miter; stroke-linecap: square"/>
   </g>
   <g id="patch_23">
    <path d="M 709.2 318.04 
L 709.2 25.44 
" style="fill: none; stroke: #000000; stroke-width: 0.8; stroke-linejoin: miter; stroke-linecap: square"/>
   </g>
   <g id="patch_24">
    <path d="M 177.95 318.04 
L 709.2 318.04 
" style="fill: none; stroke: #000000; stroke-width: 0.8; stroke-linejoin: miter; stroke-linecap: square"/>
   </g>
   <g id="patch_25">
    <path d="M 177.95 25.44 
L 709.2 25.44 
" style="fill: none; stroke: #000000; stroke-width: 0.8; stroke-linejoin: miter; stroke-linecap: square"/>
   </g>
   <g id="text_27">
    <!-- Which features are the most important for Traffic Volume prediction? -->
    <g transform="translate(236.978125 19.44) scale(0.12 -0.12)">
     <defs>
      <path id="DejaVuSans-57" d="M 213 4666 
L 850 4666 
L 1831 722 
L 2809 4666 
L 3519 4666 
L 4500 722 
L 5478 4666 
L 6119 4666 
L 4947 0 
L 4153 0 
L 3169 4050 
L 2175 0 
L 1381 0 
L 213 4666 
z
" transform="scale(0.015625)"/>
      <path id="DejaVuSans-54" d="M -19 4666 
L 3928 4666 
L 3928 4134 
L 2272 4134 
L 2272 0 
L 1638 0 
L 1638 4134 
L -19 4134 
L -19 4666 
z
" transform="scale(0.015625)"/>
      <path id="DejaVuSans-56" d="M 1831 0 
L 50 4666 
L 709 4666 
L 2188 738 
L 3669 4666 
L 4325 4666 
L 2547 0 
L 1831 0 
z
" transform="scale(0.015625)"/>
      <path id="DejaVuSans-3f" d="M 1222 794 
L 1856 794 
L 1856 0 
L 1222 0 
L 1222 794 
z
M 1838 1253 
L 1241 1253 
L 1241 1734 
Q 1241 2050 1328 2253 
Q 1416 2456 1697 2725 
L 1978 3003 
Q 2156 3169 2236 3316 
Q 2316 3463 2316 3616 
Q 2316 3894 2111 4066 
Q 1906 4238 1569 4238 
Q 1322 4238 1042 4128 
Q 763 4019 459 3809 
L 459 4397 
Q 753 4575 1054 4662 
Q 1356 4750 1678 4750 
Q 2253 4750 2601 4447 
Q 2950 4144 2950 3647 
Q 2950 3409 2837 3195 
Q 2725 2981 2444 2713 
L 2169 2444 
Q 2022 2297 1961 2214 
Q 1900 2131 1875 2053 
Q 1856 1988 1847 1894 
Q 1838 1800 1838 1638 
L 1838 1253 
z
" transform="scale(0.015625)"/>
     </defs>
     <use xlink:href="#DejaVuSans-57"/>
     <use xlink:href="#DejaVuSans-68" x="98.876953"/>
     <use xlink:href="#DejaVuSans-69" x="162.255859"/>
     <use xlink:href="#DejaVuSans-63" x="190.039062"/>
     <use xlink:href="#DejaVuSans-68" x="245.019531"/>
     <use xlink:href="#DejaVuSans-20" x="308.398438"/>
     <use xlink:href="#DejaVuSans-66" x="340.185547"/>
     <use xlink:href="#DejaVuSans-65" x="375.390625"/>
     <use xlink:href="#DejaVuSans-61" x="436.914062"/>
     <use xlink:href="#DejaVuSans-74" x="498.193359"/>
     <use xlink:href="#DejaVuSans-75" x="537.402344"/>
     <use xlink:href="#DejaVuSans-72" x="600.78125"/>
     <use xlink:href="#DejaVuSans-65" x="639.644531"/>
     <use xlink:href="#DejaVuSans-73" x="701.167969"/>
     <use xlink:href="#DejaVuSans-20" x="753.267578"/>
     <use xlink:href="#DejaVuSans-61" x="785.054688"/>
     <use xlink:href="#DejaVuSans-72" x="846.333984"/>
     <use xlink:href="#DejaVuSans-65" x="885.197266"/>
     <use xlink:href="#DejaVuSans-20" x="946.720703"/>
     <use xlink:href="#DejaVuSans-74" x="978.507812"/>
     <use xlink:href="#DejaVuSans-68" x="1017.716797"/>
     <use xlink:href="#DejaVuSans-65" x="1081.095703"/>
     <use xlink:href="#DejaVuSans-20" x="1142.619141"/>
     <use xlink:href="#DejaVuSans-6d" x="1174.40625"/>
     <use xlink:href="#DejaVuSans-6f" x="1271.818359"/>
     <use xlink:href="#DejaVuSans-73" x="1333"/>
     <use xlink:href="#DejaVuSans-74" x="1385.099609"/>
     <use xlink:href="#DejaVuSans-20" x="1424.308594"/>
     <use xlink:href="#DejaVuSans-69" x="1456.095703"/>
     <use xlink:href="#DejaVuSans-6d" x="1483.878906"/>
     <use xlink:href="#DejaVuSans-70" x="1581.291016"/>
     <use xlink:href="#DejaVuSans-6f" x="1644.767578"/>
     <use xlink:href="#DejaVuSans-72" x="1705.949219"/>
     <use xlink:href="#DejaVuSans-74" x="1747.0625"/>
     <use xlink:href="#DejaVuSans-61" x="1786.271484"/>
     <use xlink:href="#DejaVuSans-6e" x="1847.550781"/>
     <use xlink:href="#DejaVuSans-74" x="1910.929688"/>
     <use xlink:href="#DejaVuSans-20" x="1950.138672"/>
     <use xlink:href="#DejaVuSans-66" x="1981.925781"/>
     <use xlink:href="#DejaVuSans-6f" x="2017.130859"/>
     <use xlink:href="#DejaVuSans-72" x="2078.3125"/>
     <use xlink:href="#DejaVuSans-20" x="2119.425781"/>
     <use xlink:href="#DejaVuSans-54" x="2151.212891"/>
     <use xlink:href="#DejaVuSans-72" x="2197.546875"/>
     <use xlink:href="#DejaVuSans-61" x="2238.660156"/>
     <use xlink:href="#DejaVuSans-66" x="2299.939453"/>
     <use xlink:href="#DejaVuSans-66" x="2335.144531"/>
     <use xlink:href="#DejaVuSans-69" x="2370.349609"/>
     <use xlink:href="#DejaVuSans-63" x="2398.132812"/>
     <use xlink:href="#DejaVuSans-20" x="2453.113281"/>
     <use xlink:href="#DejaVuSans-56" x="2484.900391"/>
     <use xlink:href="#DejaVuSans-6f" x="2545.558594"/>
     <use xlink:href="#DejaVuSans-6c" x="2606.740234"/>
     <use xlink:href="#DejaVuSans-75" x="2634.523438"/>
     <use xlink:href="#DejaVuSans-6d" x="2697.902344"/>
     <use xlink:href="#DejaVuSans-65" x="2795.314453"/>
     <use xlink:href="#DejaVuSans-20" x="2856.837891"/>
     <use xlink:href="#DejaVuSans-70" x="2888.625"/>
     <use xlink:href="#DejaVuSans-72" x="2952.101562"/>
     <use xlink:href="#DejaVuSans-65" x="2990.964844"/>
     <use xlink:href="#DejaVuSans-64" x="3052.488281"/>
     <use xlink:href="#DejaVuSans-69" x="3115.964844"/>
     <use xlink:href="#DejaVuSans-63" x="3143.748047"/>
     <use xlink:href="#DejaVuSans-74" x="3198.728516"/>
     <use xlink:href="#DejaVuSans-69" x="3237.9375"/>
     <use xlink:href="#DejaVuSans-6f" x="3265.720703"/>
     <use xlink:href="#DejaVuSans-6e" x="3326.902344"/>
     <use xlink:href="#DejaVuSans-3f" x="3390.28125"/>
    </g>
   </g>
  </g>
 </g>
 <defs>
  <clipPath id="pb4169ca63c">
   <rect x="177.95" y="25.44" width="531.25" height="292.6"/>
  </clipPath>
 </defs>
</svg>
