<?xml version="1.0" encoding="utf-8" standalone="no"?>
<!DOCTYPE svg PUBLIC "-//W3C//DTD SVG 1.1//EN"
  "http://www.w3.org/Graphics/SVG/1.1/DTD/svg11.dtd">
<svg xmlns:xlink="http://www.w3.org/1999/xlink" width="720pt" height="360pt" viewBox="0 0 720 360" xmlns="http://www.w3.org/2000/svg" version="1.1">
 <metadata>
  <rdf:RDF xmlns:dc="http://purl.org/dc/elements/1.1/" xmlns:cc="http://creativecommons.org/ns#" xmlns:rdf="http://www.w3.org/1999/02/22-rdf-syntax-ns#">
   <cc:Work>
    <dc:type rdf:resource="http://purl.org/dc/dcmitype/StillImage"/>
    <dc:date>2024-12-03T12:57:31.316738</dc:date>
    <dc:format>image/svg+xml</dc:format>
    <dc:creator>
     <cc:Agent>
      <dc:title>Matplotlib v3.8.4, https://matplotlib.org/</dc:title>
     </cc:Agent>
    </dc:creator>
   </cc:Work>
  </rdf:RDF>
 </metadata>
 <defs>
  <style type="text/css">*{stroke-linejoin: round; stroke-linecap: butt}</style>
 </defs>
 <g id="figure_1">
  <g id="patch_1">
   <path d="M 0 360 
L 720 360 
L 720 0 
L 0 0 
z
" style="fill: #ffffff"/>
  </g>
  <g id="axes_1">
   <g id="patch_2">
    <path d="M 210.17 314.44 
L 707.04 314.44 
L 707.04 29.76 
L 210.17 29.76 
z
" style="fill: #ffffff"/>
   </g>
   <g id="patch_3">
    <path d="M 210.17 301.5 
L 683.379524 301.5 
L 683.379524 290.487234 
L 210.17 290.487234 
z
" clip-path="url(#p3519e509b8)" style="fill: #800080"/>
   </g>
   <g id="patch_4">
    <path d="M 210.17 287.734043 
L 559.070958 287.734043 
L 559.070958 276.721277 
L 210.17 276.721277 
z
" clip-path="url(#p3519e509b8)" style="fill: #ffc0cb"/>
   </g>
   <g id="patch_5">
    <path d="M 210.17 273.968085 
L 359.787487 273.968085 
L 359.787487 262.955319 
L 210.17 262.955319 
z
" clip-path="url(#p3519e509b8)" style="fill: #800080"/>
   </g>
   <g id="patch_6">
    <path d="M 210.17 260.202128 
L 332.103278 260.202128 
L 332.103278 249.189362 
L 210.17 249.189362 
z
" clip-path="url(#p3519e509b8)" style="fill: #ffc0cb"/>
   </g>
   <g id="patch_7">
    <path d="M 210.17 246.43617 
L 297.416164 246.43617 
L 297.416164 235.423404 
L 210.17 235.423404 
z
" clip-path="url(#p3519e509b8)" style="fill: #800080"/>
   </g>
   <g id="patch_8">
    <path d="M 210.17 232.670213 
L 269.36057 232.670213 
L 269.36057 221.657447 
L 210.17 221.657447 
z
" clip-path="url(#p3519e509b8)" style="fill: #ffc0cb"/>
   </g>
   <g id="patch_9">
    <path d="M 210.17 218.904255 
L 267.117807 218.904255 
L 267.117807 207.891489 
L 210.17 207.891489 
z
" clip-path="url(#p3519e509b8)" style="fill: #800080"/>
   </g>
   <g id="patch_10">
    <path d="M 210.17 205.138298 
L 262.030288 205.138298 
L 262.030288 194.125532 
L 210.17 194.125532 
z
" clip-path="url(#p3519e509b8)" style="fill: #ffc0cb"/>
   </g>
   <g id="patch_11">
    <path d="M 210.17 191.37234 
L 237.055987 191.37234 
L 237.055987 180.359574 
L 210.17 180.359574 
z
" clip-path="url(#p3519e509b8)" style="fill: #800080"/>
   </g>
   <g id="patch_12">
    <path d="M 210.17 177.606383 
L 220.523786 177.606383 
L 220.523786 166.593617 
L 210.17 166.593617 
z
" clip-path="url(#p3519e509b8)" style="fill: #ffc0cb"/>
   </g>
   <g id="patch_13">
    <path d="M 210.17 163.840426 
L 212.988443 163.840426 
L 212.988443 152.82766 
L 210.17 152.82766 
z
" clip-path="url(#p3519e509b8)" style="fill: #800080"/>
   </g>
   <g id="patch_14">
    <path d="M 210.17 150.074468 
L 211.765092 150.074468 
L 211.765092 139.061702 
L 210.17 139.061702 
z
" clip-path="url(#p3519e509b8)" style="fill: #ffc0cb"/>
   </g>
   <g id="patch_15">
    <path d="M 210.17 136.308511 
L 211.159477 136.308511 
L 211.159477 125.295745 
L 210.17 125.295745 
z
" clip-path="url(#p3519e509b8)" style="fill: #800080"/>
   </g>
   <g id="patch_16">
    <path d="M 210.17 122.542553 
L 211.151533 122.542553 
L 211.151533 111.529787 
L 210.17 111.529787 
z
" clip-path="url(#p3519e509b8)" style="fill: #ffc0cb"/>
   </g>
   <g id="patch_17">
    <path d="M 210.17 108.776596 
L 210.900656 108.776596 
L 210.900656 97.76383 
L 210.17 97.76383 
z
" clip-path="url(#p3519e509b8)" style="fill: #800080"/>
   </g>
   <g id="patch_18">
    <path d="M 210.17 95.010638 
L 210.814781 95.010638 
L 210.814781 83.997872 
L 210.17 83.997872 
z
" clip-path="url(#p3519e509b8)" style="fill: #ffc0cb"/>
   </g>
   <g id="patch_19">
    <path d="M 210.17 81.244681 
L 210.697741 81.244681 
L 210.697741 70.231915 
L 210.17 70.231915 
z
" clip-path="url(#p3519e509b8)" style="fill: #800080"/>
   </g>
   <g id="patch_20">
    <path d="M 210.17 67.478723 
L 210.635462 67.478723 
L 210.635462 56.465957 
L 210.17 56.465957 
z
" clip-path="url(#p3519e509b8)" style="fill: #ffc0cb"/>
   </g>
   <g id="patch_21">
    <path d="M 210.17 53.712766 
L 210.524863 53.712766 
L 210.524863 42.7 
L 210.17 42.7 
z
" clip-path="url(#p3519e509b8)" style="fill: #800080"/>
   </g>
   <g id="matplotlib.axis_1">
    <g id="xtick_1">
     <g id="line2d_1">
      <defs>
       <path id="m6cbede1378" d="M 0 0 
L 0 3.5 
" style="stroke: #000000; stroke-width: 0.8"/>
      </defs>
      <g>
       <use xlink:href="#m6cbede1378" x="210.17" y="314.44" style="stroke: #000000; stroke-width: 0.8"/>
      </g>
     </g>
     <g id="text_1">
      <!-- 0.00 -->
      <g transform="translate(196.810625 330.558125) scale(0.12 -0.12)">
       <defs>
        <path id="DejaVuSans-30" d="M 2034 4250 
Q 1547 4250 1301 3770 
Q 1056 3291 1056 2328 
Q 1056 1369 1301 889 
Q 1547 409 2034 409 
Q 2525 409 2770 889 
Q 3016 1369 3016 2328 
Q 3016 3291 2770 3770 
Q 2525 4250 2034 4250 
z
M 2034 4750 
Q 2819 4750 3233 4129 
Q 3647 3509 3647 2328 
Q 3647 1150 3233 529 
Q 2819 -91 2034 -91 
Q 1250 -91 836 529 
Q 422 1150 422 2328 
Q 422 3509 836 4129 
Q 1250 4750 2034 4750 
z
" transform="scale(0.015625)"/>
        <path id="DejaVuSans-2e" d="M 684 794 
L 1344 794 
L 1344 0 
L 684 0 
L 684 794 
z
" transform="scale(0.015625)"/>
       </defs>
       <use xlink:href="#DejaVuSans-30"/>
       <use xlink:href="#DejaVuSans-2e" x="63.623047"/>
       <use xlink:href="#DejaVuSans-30" x="95.410156"/>
       <use xlink:href="#DejaVuSans-30" x="159.033203"/>
      </g>
     </g>
    </g>
    <g id="xtick_2">
     <g id="line2d_2">
      <g>
       <use xlink:href="#m6cbede1378" x="303.408464" y="314.44" style="stroke: #000000; stroke-width: 0.8"/>
      </g>
     </g>
     <g id="text_2">
      <!-- 0.05 -->
      <g transform="translate(290.049089 330.558125) scale(0.12 -0.12)">
       <defs>
        <path id="DejaVuSans-35" d="M 691 4666 
L 3169 4666 
L 3169 4134 
L 1269 4134 
L 1269 2991 
Q 1406 3038 1543 3061 
Q 1681 3084 1819 3084 
Q 2600 3084 3056 2656 
Q 3513 2228 3513 1497 
Q 3513 744 3044 326 
Q 2575 -91 1722 -91 
Q 1428 -91 1123 -41 
Q 819 9 494 109 
L 494 744 
Q 775 591 1075 516 
Q 1375 441 1709 441 
Q 2250 441 2565 725 
Q 2881 1009 2881 1497 
Q 2881 1984 2565 2268 
Q 2250 2553 1709 2553 
Q 1456 2553 1204 2497 
Q 953 2441 691 2322 
L 691 4666 
z
" transform="scale(0.015625)"/>
       </defs>
       <use xlink:href="#DejaVuSans-30"/>
       <use xlink:href="#DejaVuSans-2e" x="63.623047"/>
       <use xlink:href="#DejaVuSans-30" x="95.410156"/>
       <use xlink:href="#DejaVuSans-35" x="159.033203"/>
      </g>
     </g>
    </g>
    <g id="xtick_3">
     <g id="line2d_3">
      <g>
       <use xlink:href="#m6cbede1378" x="396.646928" y="314.44" style="stroke: #000000; stroke-width: 0.8"/>
      </g>
     </g>
     <g id="text_3">
      <!-- 0.10 -->
      <g transform="translate(383.287553 330.558125) scale(0.12 -0.12)">
       <defs>
        <path id="DejaVuSans-31" d="M 794 531 
L 1825 531 
L 1825 4091 
L 703 3866 
L 703 4441 
L 1819 4666 
L 2450 4666 
L 2450 531 
L 3481 531 
L 3481 0 
L 794 0 
L 794 531 
z
" transform="scale(0.015625)"/>
       </defs>
       <use xlink:href="#DejaVuSans-30"/>
       <use xlink:href="#DejaVuSans-2e" x="63.623047"/>
       <use xlink:href="#DejaVuSans-31" x="95.410156"/>
       <use xlink:href="#DejaVuSans-30" x="159.033203"/>
      </g>
     </g>
    </g>
    <g id="xtick_4">
     <g id="line2d_4">
      <g>
       <use xlink:href="#m6cbede1378" x="489.885393" y="314.44" style="stroke: #000000; stroke-width: 0.8"/>
      </g>
     </g>
     <g id="text_4">
      <!-- 0.15 -->
      <g transform="translate(476.526018 330.558125) scale(0.12 -0.12)">
       <use xlink:href="#DejaVuSans-30"/>
       <use xlink:href="#DejaVuSans-2e" x="63.623047"/>
       <use xlink:href="#DejaVuSans-31" x="95.410156"/>
       <use xlink:href="#DejaVuSans-35" x="159.033203"/>
      </g>
     </g>
    </g>
    <g id="xtick_5">
     <g id="line2d_5">
      <g>
       <use xlink:href="#m6cbede1378" x="583.123857" y="314.44" style="stroke: #000000; stroke-width: 0.8"/>
      </g>
     </g>
     <g id="text_5">
      <!-- 0.20 -->
      <g transform="translate(569.764482 330.558125) scale(0.12 -0.12)">
       <defs>
        <path id="DejaVuSans-32" d="M 1228 531 
L 3431 531 
L 3431 0 
L 469 0 
L 469 531 
Q 828 903 1448 1529 
Q 2069 2156 2228 2338 
Q 2531 2678 2651 2914 
Q 2772 3150 2772 3378 
Q 2772 3750 2511 3984 
Q 2250 4219 1831 4219 
Q 1534 4219 1204 4116 
Q 875 4013 500 3803 
L 500 4441 
Q 881 4594 1212 4672 
Q 1544 4750 1819 4750 
Q 2544 4750 2975 4387 
Q 3406 4025 3406 3419 
Q 3406 3131 3298 2873 
Q 3191 2616 2906 2266 
Q 2828 2175 2409 1742 
Q 1991 1309 1228 531 
z
" transform="scale(0.015625)"/>
       </defs>
       <use xlink:href="#DejaVuSans-30"/>
       <use xlink:href="#DejaVuSans-2e" x="63.623047"/>
       <use xlink:href="#DejaVuSans-32" x="95.410156"/>
       <use xlink:href="#DejaVuSans-30" x="159.033203"/>
      </g>
     </g>
    </g>
    <g id="xtick_6">
     <g id="line2d_6">
      <g>
       <use xlink:href="#m6cbede1378" x="676.362321" y="314.44" style="stroke: #000000; stroke-width: 0.8"/>
      </g>
     </g>
     <g id="text_6">
      <!-- 0.25 -->
      <g transform="translate(663.002946 330.558125) scale(0.12 -0.12)">
       <use xlink:href="#DejaVuSans-30"/>
       <use xlink:href="#DejaVuSans-2e" x="63.623047"/>
       <use xlink:href="#DejaVuSans-32" x="95.410156"/>
       <use xlink:href="#DejaVuSans-35" x="159.033203"/>
      </g>
     </g>
    </g>
    <g id="text_7">
     <!-- Feature Importance -->
     <g transform="translate(399.646563 346.171875) scale(0.12 -0.12)">
      <defs>
       <path id="DejaVuSans-46" d="M 628 4666 
L 3309 4666 
L 3309 4134 
L 1259 4134 
L 1259 2759 
L 3109 2759 
L 3109 2228 
L 1259 2228 
L 1259 0 
L 628 0 
L 628 4666 
z
" transform="scale(0.015625)"/>
       <path id="DejaVuSans-65" d="M 3597 1894 
L 3597 1613 
L 953 1613 
Q 991 1019 1311 708 
Q 1631 397 2203 397 
Q 2534 397 2845 478 
Q 3156 559 3463 722 
L 3463 178 
Q 3153 47 2828 -22 
Q 2503 -91 2169 -91 
Q 1331 -91 842 396 
Q 353 884 353 1716 
Q 353 2575 817 3079 
Q 1281 3584 2069 3584 
Q 2775 3584 3186 3129 
Q 3597 2675 3597 1894 
z
M 3022 2063 
Q 3016 2534 2758 2815 
Q 2500 3097 2075 3097 
Q 1594 3097 1305 2825 
Q 1016 2553 972 2059 
L 3022 2063 
z
" transform="scale(0.015625)"/>
       <path id="DejaVuSans-61" d="M 2194 1759 
Q 1497 1759 1228 1600 
Q 959 1441 959 1056 
Q 959 750 1161 570 
Q 1363 391 1709 391 
Q 2188 391 2477 730 
Q 2766 1069 2766 1631 
L 2766 1759 
L 2194 1759 
z
M 3341 1997 
L 3341 0 
L 2766 0 
L 2766 531 
Q 2569 213 2275 61 
Q 1981 -91 1556 -91 
Q 1019 -91 701 211 
Q 384 513 384 1019 
Q 384 1609 779 1909 
Q 1175 2209 1959 2209 
L 2766 2209 
L 2766 2266 
Q 2766 2663 2505 2880 
Q 2244 3097 1772 3097 
Q 1472 3097 1187 3025 
Q 903 2953 641 2809 
L 641 3341 
Q 956 3463 1253 3523 
Q 1550 3584 1831 3584 
Q 2591 3584 2966 3190 
Q 3341 2797 3341 1997 
z
" transform="scale(0.015625)"/>
       <path id="DejaVuSans-74" d="M 1172 4494 
L 1172 3500 
L 2356 3500 
L 2356 3053 
L 1172 3053 
L 1172 1153 
Q 1172 725 1289 603 
Q 1406 481 1766 481 
L 2356 481 
L 2356 0 
L 1766 0 
Q 1100 0 847 248 
Q 594 497 594 1153 
L 594 3053 
L 172 3053 
L 172 3500 
L 594 3500 
L 594 4494 
L 1172 4494 
z
" transform="scale(0.015625)"/>
       <path id="DejaVuSans-75" d="M 544 1381 
L 544 3500 
L 1119 3500 
L 1119 1403 
Q 1119 906 1312 657 
Q 1506 409 1894 409 
Q 2359 409 2629 706 
Q 2900 1003 2900 1516 
L 2900 3500 
L 3475 3500 
L 3475 0 
L 2900 0 
L 2900 538 
Q 2691 219 2414 64 
Q 2138 -91 1772 -91 
Q 1169 -91 856 284 
Q 544 659 544 1381 
z
M 1991 3584 
L 1991 3584 
z
" transform="scale(0.015625)"/>
       <path id="DejaVuSans-72" d="M 2631 2963 
Q 2534 3019 2420 3045 
Q 2306 3072 2169 3072 
Q 1681 3072 1420 2755 
Q 1159 2438 1159 1844 
L 1159 0 
L 581 0 
L 581 3500 
L 1159 3500 
L 1159 2956 
Q 1341 3275 1631 3429 
Q 1922 3584 2338 3584 
Q 2397 3584 2469 3576 
Q 2541 3569 2628 3553 
L 2631 2963 
z
" transform="scale(0.015625)"/>
       <path id="DejaVuSans-20" transform="scale(0.015625)"/>
       <path id="DejaVuSans-49" d="M 628 4666 
L 1259 4666 
L 1259 0 
L 628 0 
L 628 4666 
z
" transform="scale(0.015625)"/>
       <path id="DejaVuSans-6d" d="M 3328 2828 
Q 3544 3216 3844 3400 
Q 4144 3584 4550 3584 
Q 5097 3584 5394 3201 
Q 5691 2819 5691 2113 
L 5691 0 
L 5113 0 
L 5113 2094 
Q 5113 2597 4934 2840 
Q 4756 3084 4391 3084 
Q 3944 3084 3684 2787 
Q 3425 2491 3425 1978 
L 3425 0 
L 2847 0 
L 2847 2094 
Q 2847 2600 2669 2842 
Q 2491 3084 2119 3084 
Q 1678 3084 1418 2786 
Q 1159 2488 1159 1978 
L 1159 0 
L 581 0 
L 581 3500 
L 1159 3500 
L 1159 2956 
Q 1356 3278 1631 3431 
Q 1906 3584 2284 3584 
Q 2666 3584 2933 3390 
Q 3200 3197 3328 2828 
z
" transform="scale(0.015625)"/>
       <path id="DejaVuSans-70" d="M 1159 525 
L 1159 -1331 
L 581 -1331 
L 581 3500 
L 1159 3500 
L 1159 2969 
Q 1341 3281 1617 3432 
Q 1894 3584 2278 3584 
Q 2916 3584 3314 3078 
Q 3713 2572 3713 1747 
Q 3713 922 3314 415 
Q 2916 -91 2278 -91 
Q 1894 -91 1617 61 
Q 1341 213 1159 525 
z
M 3116 1747 
Q 3116 2381 2855 2742 
Q 2594 3103 2138 3103 
Q 1681 3103 1420 2742 
Q 1159 2381 1159 1747 
Q 1159 1113 1420 752 
Q 1681 391 2138 391 
Q 2594 391 2855 752 
Q 3116 1113 3116 1747 
z
" transform="scale(0.015625)"/>
       <path id="DejaVuSans-6f" d="M 1959 3097 
Q 1497 3097 1228 2736 
Q 959 2375 959 1747 
Q 959 1119 1226 758 
Q 1494 397 1959 397 
Q 2419 397 2687 759 
Q 2956 1122 2956 1747 
Q 2956 2369 2687 2733 
Q 2419 3097 1959 3097 
z
M 1959 3584 
Q 2709 3584 3137 3096 
Q 3566 2609 3566 1747 
Q 3566 888 3137 398 
Q 2709 -91 1959 -91 
Q 1206 -91 779 398 
Q 353 888 353 1747 
Q 353 2609 779 3096 
Q 1206 3584 1959 3584 
z
" transform="scale(0.015625)"/>
       <path id="DejaVuSans-6e" d="M 3513 2113 
L 3513 0 
L 2938 0 
L 2938 2094 
Q 2938 2591 2744 2837 
Q 2550 3084 2163 3084 
Q 1697 3084 1428 2787 
Q 1159 2491 1159 1978 
L 1159 0 
L 581 0 
L 581 3500 
L 1159 3500 
L 1159 2956 
Q 1366 3272 1645 3428 
Q 1925 3584 2291 3584 
Q 2894 3584 3203 3211 
Q 3513 2838 3513 2113 
z
" transform="scale(0.015625)"/>
       <path id="DejaVuSans-63" d="M 3122 3366 
L 3122 2828 
Q 2878 2963 2633 3030 
Q 2388 3097 2138 3097 
Q 1578 3097 1268 2742 
Q 959 2388 959 1747 
Q 959 1106 1268 751 
Q 1578 397 2138 397 
Q 2388 397 2633 464 
Q 2878 531 3122 666 
L 3122 134 
Q 2881 22 2623 -34 
Q 2366 -91 2075 -91 
Q 1284 -91 818 406 
Q 353 903 353 1747 
Q 353 2603 823 3093 
Q 1294 3584 2113 3584 
Q 2378 3584 2631 3529 
Q 2884 3475 3122 3366 
z
" transform="scale(0.015625)"/>
      </defs>
      <use xlink:href="#DejaVuSans-46"/>
      <use xlink:href="#DejaVuSans-65" x="52.019531"/>
      <use xlink:href="#DejaVuSans-61" x="113.542969"/>
      <use xlink:href="#DejaVuSans-74" x="174.822266"/>
      <use xlink:href="#DejaVuSans-75" x="214.03125"/>
      <use xlink:href="#DejaVuSans-72" x="277.410156"/>
      <use xlink:href="#DejaVuSans-65" x="316.273438"/>
      <use xlink:href="#DejaVuSans-20" x="377.796875"/>
      <use xlink:href="#DejaVuSans-49" x="409.583984"/>
      <use xlink:href="#DejaVuSans-6d" x="439.076172"/>
      <use xlink:href="#DejaVuSans-70" x="536.488281"/>
      <use xlink:href="#DejaVuSans-6f" x="599.964844"/>
      <use xlink:href="#DejaVuSans-72" x="661.146484"/>
      <use xlink:href="#DejaVuSans-74" x="702.259766"/>
      <use xlink:href="#DejaVuSans-61" x="741.46875"/>
      <use xlink:href="#DejaVuSans-6e" x="802.748047"/>
      <use xlink:href="#DejaVuSans-63" x="866.126953"/>
      <use xlink:href="#DejaVuSans-65" x="921.107422"/>
     </g>
    </g>
   </g>
   <g id="matplotlib.axis_2">
    <g id="ytick_1">
     <g id="line2d_7">
      <defs>
       <path id="m2565067cc0" d="M 0 0 
L -3.5 0 
" style="stroke: #000000; stroke-width: 0.8"/>
      </defs>
      <g>
       <use xlink:href="#m2565067cc0" x="210.17" y="295.993617" style="stroke: #000000; stroke-width: 0.8"/>
      </g>
     </g>
     <g id="text_8">
      <!-- inq.last.6mths -->
      <g transform="translate(117.458125 300.55268) scale(0.12 -0.12)">
       <defs>
        <path id="DejaVuSans-69" d="M 603 3500 
L 1178 3500 
L 1178 0 
L 603 0 
L 603 3500 
z
M 603 4863 
L 1178 4863 
L 1178 4134 
L 603 4134 
L 603 4863 
z
" transform="scale(0.015625)"/>
        <path id="DejaVuSans-71" d="M 947 1747 
Q 947 1113 1208 752 
Q 1469 391 1925 391 
Q 2381 391 2643 752 
Q 2906 1113 2906 1747 
Q 2906 2381 2643 2742 
Q 2381 3103 1925 3103 
Q 1469 3103 1208 2742 
Q 947 2381 947 1747 
z
M 2906 525 
Q 2725 213 2448 61 
Q 2172 -91 1784 -91 
Q 1150 -91 751 415 
Q 353 922 353 1747 
Q 353 2572 751 3078 
Q 1150 3584 1784 3584 
Q 2172 3584 2448 3432 
Q 2725 3281 2906 2969 
L 2906 3500 
L 3481 3500 
L 3481 -1331 
L 2906 -1331 
L 2906 525 
z
" transform="scale(0.015625)"/>
        <path id="DejaVuSans-6c" d="M 603 4863 
L 1178 4863 
L 1178 0 
L 603 0 
L 603 4863 
z
" transform="scale(0.015625)"/>
        <path id="DejaVuSans-73" d="M 2834 3397 
L 2834 2853 
Q 2591 2978 2328 3040 
Q 2066 3103 1784 3103 
Q 1356 3103 1142 2972 
Q 928 2841 928 2578 
Q 928 2378 1081 2264 
Q 1234 2150 1697 2047 
L 1894 2003 
Q 2506 1872 2764 1633 
Q 3022 1394 3022 966 
Q 3022 478 2636 193 
Q 2250 -91 1575 -91 
Q 1294 -91 989 -36 
Q 684 19 347 128 
L 347 722 
Q 666 556 975 473 
Q 1284 391 1588 391 
Q 1994 391 2212 530 
Q 2431 669 2431 922 
Q 2431 1156 2273 1281 
Q 2116 1406 1581 1522 
L 1381 1569 
Q 847 1681 609 1914 
Q 372 2147 372 2553 
Q 372 3047 722 3315 
Q 1072 3584 1716 3584 
Q 2034 3584 2315 3537 
Q 2597 3491 2834 3397 
z
" transform="scale(0.015625)"/>
        <path id="DejaVuSans-36" d="M 2113 2584 
Q 1688 2584 1439 2293 
Q 1191 2003 1191 1497 
Q 1191 994 1439 701 
Q 1688 409 2113 409 
Q 2538 409 2786 701 
Q 3034 994 3034 1497 
Q 3034 2003 2786 2293 
Q 2538 2584 2113 2584 
z
M 3366 4563 
L 3366 3988 
Q 3128 4100 2886 4159 
Q 2644 4219 2406 4219 
Q 1781 4219 1451 3797 
Q 1122 3375 1075 2522 
Q 1259 2794 1537 2939 
Q 1816 3084 2150 3084 
Q 2853 3084 3261 2657 
Q 3669 2231 3669 1497 
Q 3669 778 3244 343 
Q 2819 -91 2113 -91 
Q 1303 -91 875 529 
Q 447 1150 447 2328 
Q 447 3434 972 4092 
Q 1497 4750 2381 4750 
Q 2619 4750 2861 4703 
Q 3103 4656 3366 4563 
z
" transform="scale(0.015625)"/>
        <path id="DejaVuSans-68" d="M 3513 2113 
L 3513 0 
L 2938 0 
L 2938 2094 
Q 2938 2591 2744 2837 
Q 2550 3084 2163 3084 
Q 1697 3084 1428 2787 
Q 1159 2491 1159 1978 
L 1159 0 
L 581 0 
L 581 4863 
L 1159 4863 
L 1159 2956 
Q 1366 3272 1645 3428 
Q 1925 3584 2291 3584 
Q 2894 3584 3203 3211 
Q 3513 2838 3513 2113 
z
" transform="scale(0.015625)"/>
       </defs>
       <use xlink:href="#DejaVuSans-69"/>
       <use xlink:href="#DejaVuSans-6e" x="27.783203"/>
       <use xlink:href="#DejaVuSans-71" x="91.162109"/>
       <use xlink:href="#DejaVuSans-2e" x="154.638672"/>
       <use xlink:href="#DejaVuSans-6c" x="186.425781"/>
       <use xlink:href="#DejaVuSans-61" x="214.208984"/>
       <use xlink:href="#DejaVuSans-73" x="275.488281"/>
       <use xlink:href="#DejaVuSans-74" x="327.587891"/>
       <use xlink:href="#DejaVuSans-2e" x="366.796875"/>
       <use xlink:href="#DejaVuSans-36" x="398.583984"/>
       <use xlink:href="#DejaVuSans-6d" x="462.207031"/>
       <use xlink:href="#DejaVuSans-74" x="559.619141"/>
       <use xlink:href="#DejaVuSans-68" x="598.828125"/>
       <use xlink:href="#DejaVuSans-73" x="662.207031"/>
      </g>
     </g>
    </g>
    <g id="ytick_2">
     <g id="line2d_8">
      <g>
       <use xlink:href="#m2565067cc0" x="210.17" y="282.22766" style="stroke: #000000; stroke-width: 0.8"/>
      </g>
     </g>
     <g id="text_9">
      <!-- fico -->
      <g transform="translate(181.67125 286.786722) scale(0.12 -0.12)">
       <defs>
        <path id="DejaVuSans-66" d="M 2375 4863 
L 2375 4384 
L 1825 4384 
Q 1516 4384 1395 4259 
Q 1275 4134 1275 3809 
L 1275 3500 
L 2222 3500 
L 2222 3053 
L 1275 3053 
L 1275 0 
L 697 0 
L 697 3053 
L 147 3053 
L 147 3500 
L 697 3500 
L 697 3744 
Q 697 4328 969 4595 
Q 1241 4863 1831 4863 
L 2375 4863 
z
" transform="scale(0.015625)"/>
       </defs>
       <use xlink:href="#DejaVuSans-66"/>
       <use xlink:href="#DejaVuSans-69" x="35.205078"/>
       <use xlink:href="#DejaVuSans-63" x="62.988281"/>
       <use xlink:href="#DejaVuSans-6f" x="117.96875"/>
      </g>
     </g>
    </g>
    <g id="ytick_3">
     <g id="line2d_9">
      <g>
       <use xlink:href="#m2565067cc0" x="210.17" y="268.461702" style="stroke: #000000; stroke-width: 0.8"/>
      </g>
     </g>
     <g id="text_10">
      <!-- revol.bal -->
      <g transform="translate(151.225 273.020765) scale(0.12 -0.12)">
       <defs>
        <path id="DejaVuSans-76" d="M 191 3500 
L 800 3500 
L 1894 563 
L 2988 3500 
L 3597 3500 
L 2284 0 
L 1503 0 
L 191 3500 
z
" transform="scale(0.015625)"/>
        <path id="DejaVuSans-62" d="M 3116 1747 
Q 3116 2381 2855 2742 
Q 2594 3103 2138 3103 
Q 1681 3103 1420 2742 
Q 1159 2381 1159 1747 
Q 1159 1113 1420 752 
Q 1681 391 2138 391 
Q 2594 391 2855 752 
Q 3116 1113 3116 1747 
z
M 1159 2969 
Q 1341 3281 1617 3432 
Q 1894 3584 2278 3584 
Q 2916 3584 3314 3078 
Q 3713 2572 3713 1747 
Q 3713 922 3314 415 
Q 2916 -91 2278 -91 
Q 1894 -91 1617 61 
Q 1341 213 1159 525 
L 1159 0 
L 581 0 
L 581 4863 
L 1159 4863 
L 1159 2969 
z
" transform="scale(0.015625)"/>
       </defs>
       <use xlink:href="#DejaVuSans-72"/>
       <use xlink:href="#DejaVuSans-65" x="38.863281"/>
       <use xlink:href="#DejaVuSans-76" x="100.386719"/>
       <use xlink:href="#DejaVuSans-6f" x="159.566406"/>
       <use xlink:href="#DejaVuSans-6c" x="220.748047"/>
       <use xlink:href="#DejaVuSans-2e" x="248.53125"/>
       <use xlink:href="#DejaVuSans-62" x="280.318359"/>
       <use xlink:href="#DejaVuSans-61" x="343.794922"/>
       <use xlink:href="#DejaVuSans-6c" x="405.074219"/>
      </g>
     </g>
    </g>
    <g id="ytick_4">
     <g id="line2d_10">
      <g>
       <use xlink:href="#m2565067cc0" x="210.17" y="254.695745" style="stroke: #000000; stroke-width: 0.8"/>
      </g>
     </g>
     <g id="text_11">
      <!-- days.with.cr.line -->
      <g transform="translate(105.85375 259.254807) scale(0.12 -0.12)">
       <defs>
        <path id="DejaVuSans-64" d="M 2906 2969 
L 2906 4863 
L 3481 4863 
L 3481 0 
L 2906 0 
L 2906 525 
Q 2725 213 2448 61 
Q 2172 -91 1784 -91 
Q 1150 -91 751 415 
Q 353 922 353 1747 
Q 353 2572 751 3078 
Q 1150 3584 1784 3584 
Q 2172 3584 2448 3432 
Q 2725 3281 2906 2969 
z
M 947 1747 
Q 947 1113 1208 752 
Q 1469 391 1925 391 
Q 2381 391 2643 752 
Q 2906 1113 2906 1747 
Q 2906 2381 2643 2742 
Q 2381 3103 1925 3103 
Q 1469 3103 1208 2742 
Q 947 2381 947 1747 
z
" transform="scale(0.015625)"/>
        <path id="DejaVuSans-79" d="M 2059 -325 
Q 1816 -950 1584 -1140 
Q 1353 -1331 966 -1331 
L 506 -1331 
L 506 -850 
L 844 -850 
Q 1081 -850 1212 -737 
Q 1344 -625 1503 -206 
L 1606 56 
L 191 3500 
L 800 3500 
L 1894 763 
L 2988 3500 
L 3597 3500 
L 2059 -325 
z
" transform="scale(0.015625)"/>
        <path id="DejaVuSans-77" d="M 269 3500 
L 844 3500 
L 1563 769 
L 2278 3500 
L 2956 3500 
L 3675 769 
L 4391 3500 
L 4966 3500 
L 4050 0 
L 3372 0 
L 2619 2869 
L 1863 0 
L 1184 0 
L 269 3500 
z
" transform="scale(0.015625)"/>
       </defs>
       <use xlink:href="#DejaVuSans-64"/>
       <use xlink:href="#DejaVuSans-61" x="63.476562"/>
       <use xlink:href="#DejaVuSans-79" x="124.755859"/>
       <use xlink:href="#DejaVuSans-73" x="183.935547"/>
       <use xlink:href="#DejaVuSans-2e" x="236.035156"/>
       <use xlink:href="#DejaVuSans-77" x="267.822266"/>
       <use xlink:href="#DejaVuSans-69" x="349.609375"/>
       <use xlink:href="#DejaVuSans-74" x="377.392578"/>
       <use xlink:href="#DejaVuSans-68" x="416.601562"/>
       <use xlink:href="#DejaVuSans-2e" x="479.980469"/>
       <use xlink:href="#DejaVuSans-63" x="511.767578"/>
       <use xlink:href="#DejaVuSans-72" x="566.748047"/>
       <use xlink:href="#DejaVuSans-2e" x="598.736328"/>
       <use xlink:href="#DejaVuSans-6c" x="630.523438"/>
       <use xlink:href="#DejaVuSans-69" x="658.306641"/>
       <use xlink:href="#DejaVuSans-6e" x="686.089844"/>
       <use xlink:href="#DejaVuSans-65" x="749.46875"/>
      </g>
     </g>
    </g>
    <g id="ytick_5">
     <g id="line2d_11">
      <g>
       <use xlink:href="#m2565067cc0" x="210.17" y="240.929787" style="stroke: #000000; stroke-width: 0.8"/>
      </g>
     </g>
     <g id="text_12">
      <!-- dti -->
      <g transform="translate(187.51375 245.48885) scale(0.12 -0.12)">
       <use xlink:href="#DejaVuSans-64"/>
       <use xlink:href="#DejaVuSans-74" x="63.476562"/>
       <use xlink:href="#DejaVuSans-69" x="102.685547"/>
      </g>
     </g>
    </g>
    <g id="ytick_6">
     <g id="line2d_12">
      <g>
       <use xlink:href="#m2565067cc0" x="210.17" y="227.16383" style="stroke: #000000; stroke-width: 0.8"/>
      </g>
     </g>
     <g id="text_13">
      <!-- log.annual.inc -->
      <g transform="translate(118.855 231.722892) scale(0.12 -0.12)">
       <defs>
        <path id="DejaVuSans-67" d="M 2906 1791 
Q 2906 2416 2648 2759 
Q 2391 3103 1925 3103 
Q 1463 3103 1205 2759 
Q 947 2416 947 1791 
Q 947 1169 1205 825 
Q 1463 481 1925 481 
Q 2391 481 2648 825 
Q 2906 1169 2906 1791 
z
M 3481 434 
Q 3481 -459 3084 -895 
Q 2688 -1331 1869 -1331 
Q 1566 -1331 1297 -1286 
Q 1028 -1241 775 -1147 
L 775 -588 
Q 1028 -725 1275 -790 
Q 1522 -856 1778 -856 
Q 2344 -856 2625 -561 
Q 2906 -266 2906 331 
L 2906 616 
Q 2728 306 2450 153 
Q 2172 0 1784 0 
Q 1141 0 747 490 
Q 353 981 353 1791 
Q 353 2603 747 3093 
Q 1141 3584 1784 3584 
Q 2172 3584 2450 3431 
Q 2728 3278 2906 2969 
L 2906 3500 
L 3481 3500 
L 3481 434 
z
" transform="scale(0.015625)"/>
       </defs>
       <use xlink:href="#DejaVuSans-6c"/>
       <use xlink:href="#DejaVuSans-6f" x="27.783203"/>
       <use xlink:href="#DejaVuSans-67" x="88.964844"/>
       <use xlink:href="#DejaVuSans-2e" x="152.441406"/>
       <use xlink:href="#DejaVuSans-61" x="184.228516"/>
       <use xlink:href="#DejaVuSans-6e" x="245.507812"/>
       <use xlink:href="#DejaVuSans-6e" x="308.886719"/>
       <use xlink:href="#DejaVuSans-75" x="372.265625"/>
       <use xlink:href="#DejaVuSans-61" x="435.644531"/>
       <use xlink:href="#DejaVuSans-6c" x="496.923828"/>
       <use xlink:href="#DejaVuSans-2e" x="524.707031"/>
       <use xlink:href="#DejaVuSans-69" x="556.494141"/>
       <use xlink:href="#DejaVuSans-6e" x="584.277344"/>
       <use xlink:href="#DejaVuSans-63" x="647.65625"/>
      </g>
     </g>
    </g>
    <g id="ytick_7">
     <g id="line2d_13">
      <g>
       <use xlink:href="#m2565067cc0" x="210.17" y="213.397872" style="stroke: #000000; stroke-width: 0.8"/>
      </g>
     </g>
     <g id="text_14">
      <!-- revol.util -->
      <g transform="translate(150.55375 217.956935) scale(0.12 -0.12)">
       <use xlink:href="#DejaVuSans-72"/>
       <use xlink:href="#DejaVuSans-65" x="38.863281"/>
       <use xlink:href="#DejaVuSans-76" x="100.386719"/>
       <use xlink:href="#DejaVuSans-6f" x="159.566406"/>
       <use xlink:href="#DejaVuSans-6c" x="220.748047"/>
       <use xlink:href="#DejaVuSans-2e" x="248.53125"/>
       <use xlink:href="#DejaVuSans-75" x="280.318359"/>
       <use xlink:href="#DejaVuSans-74" x="343.697266"/>
       <use xlink:href="#DejaVuSans-69" x="382.90625"/>
       <use xlink:href="#DejaVuSans-6c" x="410.689453"/>
      </g>
     </g>
    </g>
    <g id="ytick_8">
     <g id="line2d_14">
      <g>
       <use xlink:href="#m2565067cc0" x="210.17" y="199.631915" style="stroke: #000000; stroke-width: 0.8"/>
      </g>
     </g>
     <g id="text_15">
      <!-- int.rate -->
      <g transform="translate(159.338125 204.190977) scale(0.12 -0.12)">
       <use xlink:href="#DejaVuSans-69"/>
       <use xlink:href="#DejaVuSans-6e" x="27.783203"/>
       <use xlink:href="#DejaVuSans-74" x="91.162109"/>
       <use xlink:href="#DejaVuSans-2e" x="130.371094"/>
       <use xlink:href="#DejaVuSans-72" x="162.158203"/>
       <use xlink:href="#DejaVuSans-61" x="203.271484"/>
       <use xlink:href="#DejaVuSans-74" x="264.550781"/>
       <use xlink:href="#DejaVuSans-65" x="303.759766"/>
      </g>
     </g>
    </g>
    <g id="ytick_9">
     <g id="line2d_15">
      <g>
       <use xlink:href="#m2565067cc0" x="210.17" y="185.865957" style="stroke: #000000; stroke-width: 0.8"/>
      </g>
     </g>
     <g id="text_16">
      <!-- installment -->
      <g transform="translate(135.8725 190.42502) scale(0.12 -0.12)">
       <use xlink:href="#DejaVuSans-69"/>
       <use xlink:href="#DejaVuSans-6e" x="27.783203"/>
       <use xlink:href="#DejaVuSans-73" x="91.162109"/>
       <use xlink:href="#DejaVuSans-74" x="143.261719"/>
       <use xlink:href="#DejaVuSans-61" x="182.470703"/>
       <use xlink:href="#DejaVuSans-6c" x="243.75"/>
       <use xlink:href="#DejaVuSans-6c" x="271.533203"/>
       <use xlink:href="#DejaVuSans-6d" x="299.316406"/>
       <use xlink:href="#DejaVuSans-65" x="396.728516"/>
       <use xlink:href="#DejaVuSans-6e" x="458.251953"/>
       <use xlink:href="#DejaVuSans-74" x="521.630859"/>
      </g>
     </g>
    </g>
    <g id="ytick_10">
     <g id="line2d_16">
      <g>
       <use xlink:href="#m2565067cc0" x="210.17" y="172.1" style="stroke: #000000; stroke-width: 0.8"/>
      </g>
     </g>
     <g id="text_17">
      <!-- purpose_all_other -->
      <g transform="translate(96.428125 176.659063) scale(0.12 -0.12)">
       <defs>
        <path id="DejaVuSans-5f" d="M 3263 -1063 
L 3263 -1509 
L -63 -1509 
L -63 -1063 
L 3263 -1063 
z
" transform="scale(0.015625)"/>
       </defs>
       <use xlink:href="#DejaVuSans-70"/>
       <use xlink:href="#DejaVuSans-75" x="63.476562"/>
       <use xlink:href="#DejaVuSans-72" x="126.855469"/>
       <use xlink:href="#DejaVuSans-70" x="167.96875"/>
       <use xlink:href="#DejaVuSans-6f" x="231.445312"/>
       <use xlink:href="#DejaVuSans-73" x="292.626953"/>
       <use xlink:href="#DejaVuSans-65" x="344.726562"/>
       <use xlink:href="#DejaVuSans-5f" x="406.25"/>
       <use xlink:href="#DejaVuSans-61" x="456.25"/>
       <use xlink:href="#DejaVuSans-6c" x="517.529297"/>
       <use xlink:href="#DejaVuSans-6c" x="545.3125"/>
       <use xlink:href="#DejaVuSans-5f" x="573.095703"/>
       <use xlink:href="#DejaVuSans-6f" x="623.095703"/>
       <use xlink:href="#DejaVuSans-74" x="684.277344"/>
       <use xlink:href="#DejaVuSans-68" x="723.486328"/>
       <use xlink:href="#DejaVuSans-65" x="786.865234"/>
       <use xlink:href="#DejaVuSans-72" x="848.388672"/>
      </g>
     </g>
    </g>
    <g id="ytick_11">
     <g id="line2d_17">
      <g>
       <use xlink:href="#m2565067cc0" x="210.17" y="158.334043" style="stroke: #000000; stroke-width: 0.8"/>
      </g>
     </g>
     <g id="text_18">
      <!-- not.fully.paid -->
      <g transform="translate(126.0775 162.893105) scale(0.12 -0.12)">
       <use xlink:href="#DejaVuSans-6e"/>
       <use xlink:href="#DejaVuSans-6f" x="63.378906"/>
       <use xlink:href="#DejaVuSans-74" x="124.560547"/>
       <use xlink:href="#DejaVuSans-2e" x="163.769531"/>
       <use xlink:href="#DejaVuSans-66" x="195.556641"/>
       <use xlink:href="#DejaVuSans-75" x="230.761719"/>
       <use xlink:href="#DejaVuSans-6c" x="294.140625"/>
       <use xlink:href="#DejaVuSans-6c" x="321.923828"/>
       <use xlink:href="#DejaVuSans-79" x="349.707031"/>
       <use xlink:href="#DejaVuSans-2e" x="394.636719"/>
       <use xlink:href="#DejaVuSans-70" x="426.423828"/>
       <use xlink:href="#DejaVuSans-61" x="489.900391"/>
       <use xlink:href="#DejaVuSans-69" x="551.179688"/>
       <use xlink:href="#DejaVuSans-64" x="578.962891"/>
      </g>
     </g>
    </g>
    <g id="ytick_12">
     <g id="line2d_18">
      <g>
       <use xlink:href="#m2565067cc0" x="210.17" y="144.568085" style="stroke: #000000; stroke-width: 0.8"/>
      </g>
     </g>
     <g id="text_19">
      <!-- delinq.2yrs -->
      <g transform="translate(136.541875 149.127148) scale(0.12 -0.12)">
       <use xlink:href="#DejaVuSans-64"/>
       <use xlink:href="#DejaVuSans-65" x="63.476562"/>
       <use xlink:href="#DejaVuSans-6c" x="125"/>
       <use xlink:href="#DejaVuSans-69" x="152.783203"/>
       <use xlink:href="#DejaVuSans-6e" x="180.566406"/>
       <use xlink:href="#DejaVuSans-71" x="243.945312"/>
       <use xlink:href="#DejaVuSans-2e" x="307.421875"/>
       <use xlink:href="#DejaVuSans-32" x="339.208984"/>
       <use xlink:href="#DejaVuSans-79" x="402.832031"/>
       <use xlink:href="#DejaVuSans-72" x="462.011719"/>
       <use xlink:href="#DejaVuSans-73" x="503.125"/>
      </g>
     </g>
    </g>
    <g id="ytick_13">
     <g id="line2d_19">
      <g>
       <use xlink:href="#m2565067cc0" x="210.17" y="130.802128" style="stroke: #000000; stroke-width: 0.8"/>
      </g>
     </g>
     <g id="text_20">
      <!-- purpose_credit_card -->
      <g transform="translate(81.82375 135.36119) scale(0.12 -0.12)">
       <use xlink:href="#DejaVuSans-70"/>
       <use xlink:href="#DejaVuSans-75" x="63.476562"/>
       <use xlink:href="#DejaVuSans-72" x="126.855469"/>
       <use xlink:href="#DejaVuSans-70" x="167.96875"/>
       <use xlink:href="#DejaVuSans-6f" x="231.445312"/>
       <use xlink:href="#DejaVuSans-73" x="292.626953"/>
       <use xlink:href="#DejaVuSans-65" x="344.726562"/>
       <use xlink:href="#DejaVuSans-5f" x="406.25"/>
       <use xlink:href="#DejaVuSans-63" x="456.25"/>
       <use xlink:href="#DejaVuSans-72" x="511.230469"/>
       <use xlink:href="#DejaVuSans-65" x="550.09375"/>
       <use xlink:href="#DejaVuSans-64" x="611.617188"/>
       <use xlink:href="#DejaVuSans-69" x="675.09375"/>
       <use xlink:href="#DejaVuSans-74" x="702.876953"/>
       <use xlink:href="#DejaVuSans-5f" x="742.085938"/>
       <use xlink:href="#DejaVuSans-63" x="792.085938"/>
       <use xlink:href="#DejaVuSans-61" x="847.066406"/>
       <use xlink:href="#DejaVuSans-72" x="908.345703"/>
       <use xlink:href="#DejaVuSans-64" x="947.708984"/>
      </g>
     </g>
    </g>
    <g id="ytick_14">
     <g id="line2d_20">
      <g>
       <use xlink:href="#m2565067cc0" x="210.17" y="117.03617" style="stroke: #000000; stroke-width: 0.8"/>
      </g>
     </g>
     <g id="text_21">
      <!-- purpose_debt_consolidation -->
      <g transform="translate(35.329375 121.595233) scale(0.12 -0.12)">
       <use xlink:href="#DejaVuSans-70"/>
       <use xlink:href="#DejaVuSans-75" x="63.476562"/>
       <use xlink:href="#DejaVuSans-72" x="126.855469"/>
       <use xlink:href="#DejaVuSans-70" x="167.96875"/>
       <use xlink:href="#DejaVuSans-6f" x="231.445312"/>
       <use xlink:href="#DejaVuSans-73" x="292.626953"/>
       <use xlink:href="#DejaVuSans-65" x="344.726562"/>
       <use xlink:href="#DejaVuSans-5f" x="406.25"/>
       <use xlink:href="#DejaVuSans-64" x="456.25"/>
       <use xlink:href="#DejaVuSans-65" x="519.726562"/>
       <use xlink:href="#DejaVuSans-62" x="581.25"/>
       <use xlink:href="#DejaVuSans-74" x="644.726562"/>
       <use xlink:href="#DejaVuSans-5f" x="683.935547"/>
       <use xlink:href="#DejaVuSans-63" x="733.935547"/>
       <use xlink:href="#DejaVuSans-6f" x="788.916016"/>
       <use xlink:href="#DejaVuSans-6e" x="850.097656"/>
       <use xlink:href="#DejaVuSans-73" x="913.476562"/>
       <use xlink:href="#DejaVuSans-6f" x="965.576172"/>
       <use xlink:href="#DejaVuSans-6c" x="1026.757812"/>
       <use xlink:href="#DejaVuSans-69" x="1054.541016"/>
       <use xlink:href="#DejaVuSans-64" x="1082.324219"/>
       <use xlink:href="#DejaVuSans-61" x="1145.800781"/>
       <use xlink:href="#DejaVuSans-74" x="1207.080078"/>
       <use xlink:href="#DejaVuSans-69" x="1246.289062"/>
       <use xlink:href="#DejaVuSans-6f" x="1274.072266"/>
       <use xlink:href="#DejaVuSans-6e" x="1335.253906"/>
      </g>
     </g>
    </g>
    <g id="ytick_15">
     <g id="line2d_21">
      <g>
       <use xlink:href="#m2565067cc0" x="210.17" y="103.270213" style="stroke: #000000; stroke-width: 0.8"/>
      </g>
     </g>
     <g id="text_22">
      <!-- pub.rec -->
      <g transform="translate(157.87 107.829275) scale(0.12 -0.12)">
       <use xlink:href="#DejaVuSans-70"/>
       <use xlink:href="#DejaVuSans-75" x="63.476562"/>
       <use xlink:href="#DejaVuSans-62" x="126.855469"/>
       <use xlink:href="#DejaVuSans-2e" x="190.332031"/>
       <use xlink:href="#DejaVuSans-72" x="222.119141"/>
       <use xlink:href="#DejaVuSans-65" x="260.982422"/>
       <use xlink:href="#DejaVuSans-63" x="322.505859"/>
      </g>
     </g>
    </g>
    <g id="ytick_16">
     <g id="line2d_22">
      <g>
       <use xlink:href="#m2565067cc0" x="210.17" y="89.504255" style="stroke: #000000; stroke-width: 0.8"/>
      </g>
     </g>
     <g id="text_23">
      <!-- purpose_small_business -->
      <g transform="translate(58.1575 94.063318) scale(0.12 -0.12)">
       <use xlink:href="#DejaVuSans-70"/>
       <use xlink:href="#DejaVuSans-75" x="63.476562"/>
       <use xlink:href="#DejaVuSans-72" x="126.855469"/>
       <use xlink:href="#DejaVuSans-70" x="167.96875"/>
       <use xlink:href="#DejaVuSans-6f" x="231.445312"/>
       <use xlink:href="#DejaVuSans-73" x="292.626953"/>
       <use xlink:href="#DejaVuSans-65" x="344.726562"/>
       <use xlink:href="#DejaVuSans-5f" x="406.25"/>
       <use xlink:href="#DejaVuSans-73" x="456.25"/>
       <use xlink:href="#DejaVuSans-6d" x="508.349609"/>
       <use xlink:href="#DejaVuSans-61" x="605.761719"/>
       <use xlink:href="#DejaVuSans-6c" x="667.041016"/>
       <use xlink:href="#DejaVuSans-6c" x="694.824219"/>
       <use xlink:href="#DejaVuSans-5f" x="722.607422"/>
       <use xlink:href="#DejaVuSans-62" x="772.607422"/>
       <use xlink:href="#DejaVuSans-75" x="836.083984"/>
       <use xlink:href="#DejaVuSans-73" x="899.462891"/>
       <use xlink:href="#DejaVuSans-69" x="951.5625"/>
       <use xlink:href="#DejaVuSans-6e" x="979.345703"/>
       <use xlink:href="#DejaVuSans-65" x="1042.724609"/>
       <use xlink:href="#DejaVuSans-73" x="1104.248047"/>
       <use xlink:href="#DejaVuSans-73" x="1156.347656"/>
      </g>
     </g>
    </g>
    <g id="ytick_17">
     <g id="line2d_23">
      <g>
       <use xlink:href="#m2565067cc0" x="210.17" y="75.738298" style="stroke: #000000; stroke-width: 0.8"/>
      </g>
     </g>
     <g id="text_24">
      <!-- purpose_major_purchase -->
      <g transform="translate(52.688125 80.29736) scale(0.12 -0.12)">
       <defs>
        <path id="DejaVuSans-6a" d="M 603 3500 
L 1178 3500 
L 1178 -63 
Q 1178 -731 923 -1031 
Q 669 -1331 103 -1331 
L -116 -1331 
L -116 -844 
L 38 -844 
Q 366 -844 484 -692 
Q 603 -541 603 -63 
L 603 3500 
z
M 603 4863 
L 1178 4863 
L 1178 4134 
L 603 4134 
L 603 4863 
z
" transform="scale(0.015625)"/>
       </defs>
       <use xlink:href="#DejaVuSans-70"/>
       <use xlink:href="#DejaVuSans-75" x="63.476562"/>
       <use xlink:href="#DejaVuSans-72" x="126.855469"/>
       <use xlink:href="#DejaVuSans-70" x="167.96875"/>
       <use xlink:href="#DejaVuSans-6f" x="231.445312"/>
       <use xlink:href="#DejaVuSans-73" x="292.626953"/>
       <use xlink:href="#DejaVuSans-65" x="344.726562"/>
       <use xlink:href="#DejaVuSans-5f" x="406.25"/>
       <use xlink:href="#DejaVuSans-6d" x="456.25"/>
       <use xlink:href="#DejaVuSans-61" x="553.662109"/>
       <use xlink:href="#DejaVuSans-6a" x="614.941406"/>
       <use xlink:href="#DejaVuSans-6f" x="642.724609"/>
       <use xlink:href="#DejaVuSans-72" x="703.90625"/>
       <use xlink:href="#DejaVuSans-5f" x="745.019531"/>
       <use xlink:href="#DejaVuSans-70" x="795.019531"/>
       <use xlink:href="#DejaVuSans-75" x="858.496094"/>
       <use xlink:href="#DejaVuSans-72" x="921.875"/>
       <use xlink:href="#DejaVuSans-63" x="960.738281"/>
       <use xlink:href="#DejaVuSans-68" x="1015.71875"/>
       <use xlink:href="#DejaVuSans-61" x="1079.097656"/>
       <use xlink:href="#DejaVuSans-73" x="1140.376953"/>
       <use xlink:href="#DejaVuSans-65" x="1192.476562"/>
      </g>
     </g>
    </g>
    <g id="ytick_18">
     <g id="line2d_24">
      <g>
       <use xlink:href="#m2565067cc0" x="210.17" y="61.97234" style="stroke: #000000; stroke-width: 0.8"/>
      </g>
     </g>
     <g id="text_25">
      <!-- purpose_educational -->
      <g transform="translate(78.18625 66.531403) scale(0.12 -0.12)">
       <use xlink:href="#DejaVuSans-70"/>
       <use xlink:href="#DejaVuSans-75" x="63.476562"/>
       <use xlink:href="#DejaVuSans-72" x="126.855469"/>
       <use xlink:href="#DejaVuSans-70" x="167.96875"/>
       <use xlink:href="#DejaVuSans-6f" x="231.445312"/>
       <use xlink:href="#DejaVuSans-73" x="292.626953"/>
       <use xlink:href="#DejaVuSans-65" x="344.726562"/>
       <use xlink:href="#DejaVuSans-5f" x="406.25"/>
       <use xlink:href="#DejaVuSans-65" x="456.25"/>
       <use xlink:href="#DejaVuSans-64" x="517.773438"/>
       <use xlink:href="#DejaVuSans-75" x="581.25"/>
       <use xlink:href="#DejaVuSans-63" x="644.628906"/>
       <use xlink:href="#DejaVuSans-61" x="699.609375"/>
       <use xlink:href="#DejaVuSans-74" x="760.888672"/>
       <use xlink:href="#DejaVuSans-69" x="800.097656"/>
       <use xlink:href="#DejaVuSans-6f" x="827.880859"/>
       <use xlink:href="#DejaVuSans-6e" x="889.0625"/>
       <use xlink:href="#DejaVuSans-61" x="952.441406"/>
       <use xlink:href="#DejaVuSans-6c" x="1013.720703"/>
      </g>
     </g>
    </g>
    <g id="ytick_19">
     <g id="line2d_25">
      <g>
       <use xlink:href="#m2565067cc0" x="210.17" y="48.206383" style="stroke: #000000; stroke-width: 0.8"/>
      </g>
     </g>
     <g id="text_26">
      <!-- purpose_home_improvement -->
      <g transform="translate(27.88375 52.765445) scale(0.12 -0.12)">
       <use xlink:href="#DejaVuSans-70"/>
       <use xlink:href="#DejaVuSans-75" x="63.476562"/>
       <use xlink:href="#DejaVuSans-72" x="126.855469"/>
       <use xlink:href="#DejaVuSans-70" x="167.96875"/>
       <use xlink:href="#DejaVuSans-6f" x="231.445312"/>
       <use xlink:href="#DejaVuSans-73" x="292.626953"/>
       <use xlink:href="#DejaVuSans-65" x="344.726562"/>
       <use xlink:href="#DejaVuSans-5f" x="406.25"/>
       <use xlink:href="#DejaVuSans-68" x="456.25"/>
       <use xlink:href="#DejaVuSans-6f" x="519.628906"/>
       <use xlink:href="#DejaVuSans-6d" x="580.810547"/>
       <use xlink:href="#DejaVuSans-65" x="678.222656"/>
       <use xlink:href="#DejaVuSans-5f" x="739.746094"/>
       <use xlink:href="#DejaVuSans-69" x="789.746094"/>
       <use xlink:href="#DejaVuSans-6d" x="817.529297"/>
       <use xlink:href="#DejaVuSans-70" x="914.941406"/>
       <use xlink:href="#DejaVuSans-72" x="978.417969"/>
       <use xlink:href="#DejaVuSans-6f" x="1017.28125"/>
       <use xlink:href="#DejaVuSans-76" x="1078.462891"/>
       <use xlink:href="#DejaVuSans-65" x="1137.642578"/>
       <use xlink:href="#DejaVuSans-6d" x="1199.166016"/>
       <use xlink:href="#DejaVuSans-65" x="1296.578125"/>
       <use xlink:href="#DejaVuSans-6e" x="1358.101562"/>
       <use xlink:href="#DejaVuSans-74" x="1421.480469"/>
      </g>
     </g>
    </g>
    <g id="text_27">
     <!-- Features -->
     <g transform="translate(21.388125 197.893438) rotate(-90) scale(0.12 -0.12)">
      <use xlink:href="#DejaVuSans-46"/>
      <use xlink:href="#DejaVuSans-65" x="52.019531"/>
      <use xlink:href="#DejaVuSans-61" x="113.542969"/>
      <use xlink:href="#DejaVuSans-74" x="174.822266"/>
      <use xlink:href="#DejaVuSans-75" x="214.03125"/>
      <use xlink:href="#DejaVuSans-72" x="277.410156"/>
      <use xlink:href="#DejaVuSans-65" x="316.273438"/>
      <use xlink:href="#DejaVuSans-73" x="377.796875"/>
     </g>
    </g>
   </g>
   <g id="patch_22">
    <path d="M 210.17 314.44 
L 210.17 29.76 
" style="fill: none; stroke: #000000; stroke-width: 0.8; stroke-linejoin: miter; stroke-linecap: square"/>
   </g>
   <g id="patch_23">
    <path d="M 707.04 314.44 
L 707.04 29.76 
" style="fill: none; stroke: #000000; stroke-width: 0.8; stroke-linejoin: miter; stroke-linecap: square"/>
   </g>
   <g id="patch_24">
    <path d="M 210.17 314.44 
L 707.04 314.44 
" style="fill: none; stroke: #000000; stroke-width: 0.8; stroke-linejoin: miter; stroke-linecap: square"/>
   </g>
   <g id="patch_25">
    <path d="M 210.17 29.76 
L 707.04 29.76 
" style="fill: none; stroke: #000000; stroke-width: 0.8; stroke-linejoin: miter; stroke-linecap: square"/>
   </g>
   <g id="text_28">
    <!-- Weighted Feature Importance for Soft Voting Classifier -->
    <g transform="translate(262.6255 23.76) scale(0.144 -0.144)">
     <defs>
      <path id="DejaVuSans-57" d="M 213 4666 
L 850 4666 
L 1831 722 
L 2809 4666 
L 3519 4666 
L 4500 722 
L 5478 4666 
L 6119 4666 
L 4947 0 
L 4153 0 
L 3169 4050 
L 2175 0 
L 1381 0 
L 213 4666 
z
" transform="scale(0.015625)"/>
      <path id="DejaVuSans-53" d="M 3425 4513 
L 3425 3897 
Q 3066 4069 2747 4153 
Q 2428 4238 2131 4238 
Q 1616 4238 1336 4038 
Q 1056 3838 1056 3469 
Q 1056 3159 1242 3001 
Q 1428 2844 1947 2747 
L 2328 2669 
Q 3034 2534 3370 2195 
Q 3706 1856 3706 1288 
Q 3706 609 3251 259 
Q 2797 -91 1919 -91 
Q 1588 -91 1214 -16 
Q 841 59 441 206 
L 441 856 
Q 825 641 1194 531 
Q 1563 422 1919 422 
Q 2459 422 2753 634 
Q 3047 847 3047 1241 
Q 3047 1584 2836 1778 
Q 2625 1972 2144 2069 
L 1759 2144 
Q 1053 2284 737 2584 
Q 422 2884 422 3419 
Q 422 4038 858 4394 
Q 1294 4750 2059 4750 
Q 2388 4750 2728 4690 
Q 3069 4631 3425 4513 
z
" transform="scale(0.015625)"/>
      <path id="DejaVuSans-56" d="M 1831 0 
L 50 4666 
L 709 4666 
L 2188 738 
L 3669 4666 
L 4325 4666 
L 2547 0 
L 1831 0 
z
" transform="scale(0.015625)"/>
      <path id="DejaVuSans-43" d="M 4122 4306 
L 4122 3641 
Q 3803 3938 3442 4084 
Q 3081 4231 2675 4231 
Q 1875 4231 1450 3742 
Q 1025 3253 1025 2328 
Q 1025 1406 1450 917 
Q 1875 428 2675 428 
Q 3081 428 3442 575 
Q 3803 722 4122 1019 
L 4122 359 
Q 3791 134 3420 21 
Q 3050 -91 2638 -91 
Q 1578 -91 968 557 
Q 359 1206 359 2328 
Q 359 3453 968 4101 
Q 1578 4750 2638 4750 
Q 3056 4750 3426 4639 
Q 3797 4528 4122 4306 
z
" transform="scale(0.015625)"/>
     </defs>
     <use xlink:href="#DejaVuSans-57"/>
     <use xlink:href="#DejaVuSans-65" x="93.001953"/>
     <use xlink:href="#DejaVuSans-69" x="154.525391"/>
     <use xlink:href="#DejaVuSans-67" x="182.308594"/>
     <use xlink:href="#DejaVuSans-68" x="245.785156"/>
     <use xlink:href="#DejaVuSans-74" x="309.164062"/>
     <use xlink:href="#DejaVuSans-65" x="348.373047"/>
     <use xlink:href="#DejaVuSans-64" x="409.896484"/>
     <use xlink:href="#DejaVuSans-20" x="473.373047"/>
     <use xlink:href="#DejaVuSans-46" x="505.160156"/>
     <use xlink:href="#DejaVuSans-65" x="557.179688"/>
     <use xlink:href="#DejaVuSans-61" x="618.703125"/>
     <use xlink:href="#DejaVuSans-74" x="679.982422"/>
     <use xlink:href="#DejaVuSans-75" x="719.191406"/>
     <use xlink:href="#DejaVuSans-72" x="782.570312"/>
     <use xlink:href="#DejaVuSans-65" x="821.433594"/>
     <use xlink:href="#DejaVuSans-20" x="882.957031"/>
     <use xlink:href="#DejaVuSans-49" x="914.744141"/>
     <use xlink:href="#DejaVuSans-6d" x="944.236328"/>
     <use xlink:href="#DejaVuSans-70" x="1041.648438"/>
     <use xlink:href="#DejaVuSans-6f" x="1105.125"/>
     <use xlink:href="#DejaVuSans-72" x="1166.306641"/>
     <use xlink:href="#DejaVuSans-74" x="1207.419922"/>
     <use xlink:href="#DejaVuSans-61" x="1246.628906"/>
     <use xlink:href="#DejaVuSans-6e" x="1307.908203"/>
     <use xlink:href="#DejaVuSans-63" x="1371.287109"/>
     <use xlink:href="#DejaVuSans-65" x="1426.267578"/>
     <use xlink:href="#DejaVuSans-20" x="1487.791016"/>
     <use xlink:href="#DejaVuSans-66" x="1519.578125"/>
     <use xlink:href="#DejaVuSans-6f" x="1554.783203"/>
     <use xlink:href="#DejaVuSans-72" x="1615.964844"/>
     <use xlink:href="#DejaVuSans-20" x="1657.078125"/>
     <use xlink:href="#DejaVuSans-53" x="1688.865234"/>
     <use xlink:href="#DejaVuSans-6f" x="1752.341797"/>
     <use xlink:href="#DejaVuSans-66" x="1813.523438"/>
     <use xlink:href="#DejaVuSans-74" x="1846.978516"/>
     <use xlink:href="#DejaVuSans-20" x="1886.1875"/>
     <use xlink:href="#DejaVuSans-56" x="1917.974609"/>
     <use xlink:href="#DejaVuSans-6f" x="1978.632812"/>
     <use xlink:href="#DejaVuSans-74" x="2039.814453"/>
     <use xlink:href="#DejaVuSans-69" x="2079.023438"/>
     <use xlink:href="#DejaVuSans-6e" x="2106.806641"/>
     <use xlink:href="#DejaVuSans-67" x="2170.185547"/>
     <use xlink:href="#DejaVuSans-20" x="2233.662109"/>
     <use xlink:href="#DejaVuSans-43" x="2265.449219"/>
     <use xlink:href="#DejaVuSans-6c" x="2335.273438"/>
     <use xlink:href="#DejaVuSans-61" x="2363.056641"/>
     <use xlink:href="#DejaVuSans-73" x="2424.335938"/>
     <use xlink:href="#DejaVuSans-73" x="2476.435547"/>
     <use xlink:href="#DejaVuSans-69" x="2528.535156"/>
     <use xlink:href="#DejaVuSans-66" x="2556.318359"/>
     <use xlink:href="#DejaVuSans-69" x="2591.523438"/>
     <use xlink:href="#DejaVuSans-65" x="2619.306641"/>
     <use xlink:href="#DejaVuSans-72" x="2680.830078"/>
    </g>
   </g>
  </g>
 </g>
 <defs>
  <clipPath id="p3519e509b8">
   <rect x="210.17" y="29.76" width="496.87" height="284.68"/>
  </clipPath>
 </defs>
</svg>
